<svg xmlns="http://www.w3.org/2000/svg" width="134" height="155" fill="none"><path fill="url(#a)" d="M1.963 154.263h.904v-5.13H4.49v-.802H.34v.802h1.623v5.13Z"/><path fill="url(#b)" d="M14.296 148.329h-.755l-2.154 5.933h.954l.453-1.324h2.25l.46 1.324h.947l-2.155-5.933Zm-1.24 3.813.856-2.593h.014l.864 2.593h-1.735Z"/><path fill="url(#c)" d="M25.43 149.613c.095-.122.22-.224.374-.305.152-.079.334-.121.545-.126.287.005.531.088.732.248.193.168.326.372.399.61h.952a2.242 2.242 0 0 0-.683-1.249c-.36-.334-.827-.503-1.399-.508-.467.005-.856.117-1.168.334-.317.214-.548.458-.69.732a1.662 1.662 0 0 0-.2.565c-.042.233-.062.694-.062 1.383 0 .678.02 1.136.061 1.375.022.127.049.233.082.317.035.081.074.167.118.256.144.274.374.515.691.724.312.217.701.331 1.168.342.604-.011 1.106-.216 1.505-.614.396-.401.6-.899.61-1.493v-1.208h-2.107v.85h1.208v.309c-.006.372-.122.671-.35.899a1.144 1.144 0 0 1-.866.358c-.212 0-.394-.045-.545-.134a1.05 1.05 0 0 1-.374-.297.983.983 0 0 1-.232-.5c-.043-.206-.065-.601-.065-1.184s.022-.98.065-1.192a.966.966 0 0 1 .231-.492Z"/><path fill="url(#d)" d="M39.675 148.331v5.932h3.787v-.851h-2.888v-5.081h-.899Z"/><path fill="url(#e)" d="M52.706 148.331h-.899v5.931h.9v-5.931Z"/><path fill="url(#f)" d="M61.453 148.331v5.932h.9v-4.215h.015l2.681 4.215h.85v-5.932H65v4.215h-.016l-2.685-4.215h-.846Z"/><path fill="url(#g)" d="M78.438 149.182v-.851h-3.787v5.932h3.787v-.851H75.55v-1.741h2.465v-.797H75.55v-1.692h2.888Z"/><path fill="url(#h)" d="M96.56 154.263v-5.932h-.9v2.543h-2.347v-2.543h-.9v5.932h.9v-2.592h2.347v2.592h.9Z"/><path fill="url(#i)" d="M109.097 149.182v-.851h-3.787v5.932h3.787v-.851h-2.888v-1.741h2.465v-.797h-2.465v-1.692h2.888Z"/><path fill="url(#j)" d="M120.405 151.628c.754-.288 1.139-.837 1.152-1.639-.021-.549-.213-.974-.59-1.269-.316-.26-.72-.391-1.214-.391h-2.312v5.933h.899v-2.531h1.146l1.228 2.531h1.07l-1.379-2.634Zm-2.065-.699v-1.797h1.406c.288 0 .507.062.659.185.192.137.295.363.302.672a.902.902 0 0 1-.254.651c-.165.185-.418.288-.754.288h-1.359v.001Z"/><path fill="url(#k)" d="M133.808 149.182v-.851h-3.787v5.932h3.787v-.851h-2.888v-1.741h2.465v-.797h-2.465v-1.692h2.888Z"/><path fill="url(#l)" d="M6.613 141.345c1.359 0 2.567-.36 3.624-1.08 1.057-.72 1.795-1.719 2.213-2.997H8.895c-.465.895-1.208 1.342-2.23 1.342s-1.827-.319-2.413-.958c-.586-.639-.88-1.492-.88-2.561s.293-1.922.88-2.561c.586-.639 1.391-.958 2.413-.958 1.022 0 1.766.447 2.23 1.342h3.555c-.418-1.278-1.156-2.277-2.213-2.997-1.057-.72-2.265-1.08-3.624-1.08-1.754 0-3.238.59-4.452 1.769-1.214 1.179-1.82 2.674-1.82 4.487 0 1.812.606 3.308 1.82 4.487 1.214 1.176 2.698 1.765 4.452 1.765Z"/><path fill="url(#m)" d="M33.15 135.09c0-1.812-.601-3.308-1.803-4.487-1.202-1.179-2.683-1.769-4.443-1.769-1.76 0-3.247.59-4.46 1.769-1.215 1.179-1.822 2.674-1.822 4.487 0 1.812.607 3.311 1.821 4.495 1.214 1.185 2.698 1.777 4.452 1.777s3.235-.592 4.443-1.777c1.207-1.185 1.812-2.683 1.812-4.495Zm-3.912 2.561c-.587.639-1.371.958-2.352.958-.982 0-1.766-.319-2.352-.958-.587-.639-.88-1.492-.88-2.561s.293-1.922.88-2.561c.586-.639 1.371-.958 2.352-.958.981 0 1.765.32 2.352.958.587.639.88 1.493.88 2.561 0 1.069-.293 1.922-.88 2.561Z"/><path fill="url(#n)" d="M55.888 129.009h-3.415l-3.502 8.433-3.52-8.433h-3.415v12.232h2.98v-6.9l2.84 6.9h2.212l2.84-6.9v6.9h2.98v-12.232Z"/><path fill="url(#o)" d="M68.451 136.484h1.847c.848 0 1.583-.125 2.204-.375.621-.25 1.09-.572 1.403-.967.592-.767.89-1.562.89-2.387 0-1.034-.396-1.917-1.186-2.648-.79-.732-1.894-1.098-3.311-1.098h-4.826v12.232h2.98v-4.757h-.001Zm0-5.21h1.847c.442 0 .796.139 1.063.418.267.279.401.636.401 1.072 0 .436-.13.787-.392 1.054-.26.267-.618.401-1.072.401h-1.847v-2.945Z"/><path fill="url(#p)" d="m86.658 128.974-4.251 12.267h3.171l.68-2.056h4.39l.68 2.056h3.19l-4.235-12.267h-3.625Zm.35 7.945 1.445-4.356 1.446 4.356h-2.892Z"/><path fill="url(#q)" d="M113.892 141.241v-12.267h-2.979v7.719l-4.983-7.719h-2.98v12.267h2.98v-7.719l4.983 7.719h2.979Z"/><path fill="url(#r)" d="M126.664 137.303v3.938h2.979v-3.938l4.235-8.294h-3.381l-2.335 5.523-2.352-5.523h-3.38l4.234 8.294Z"/><path fill="url(#s)" d="M75.253 15.587a34.843 34.843 0 0 1 4.492 8.666 39.94 39.94 0 0 1 4.68.903l.161.044c.28.073.559.147.839.23a23.294 23.294 0 0 1 .82.24c.23.069.46.142.691.221.235.079.471.157.706.24.221.074.437.152.657.235.216.078.432.162.647.245 1.27.49 2.506 1.05 3.708 1.667.29.147.574.294.853.451.481.26.952.53 1.417.809.201.118.397.241.593.363.093.054.186.113.28.172.211.132.417.27.623.407.201.127.397.265.594.397a39.951 39.951 0 0 1 6.341 5.399c.225.226.441.461.652.696.177.191.348.387.52.584.28.319.554.643.819.971.167.191.324.387.476.589.211.27.422.54.623.809.191.255.383.515.564.775a40.2 40.2 0 0 1 1.584 2.403 20 20 0 0 1 .49.829 38.692 38.692 0 0 1 1.413 2.688c.123.245.235.495.348.745.113.245.221.495.329.745.098.221.191.442.28.667.083.206.167.412.245.618.201.52.397 1.05.574 1.584.108.309.211.618.304.932.005.01.01.025.015.039a38.809 38.809 0 0 1 1.049 4.178l.074.382c.029.172.064.343.088.515.044.245.083.49.118.736.039.245.078.495.108.745l.044.333c.02.182.044.368.064.554.02.176.039.353.049.529a30.038 30.038 0 0 1 .133 1.77c.02.338.034.682.039 1.02.01.343.015.682.015 1.025 0 21.962-17.87 39.833-39.833 39.833-.343 0-.687-.005-1.025-.015-.343-.005-.682-.02-1.02-.039a22.362 22.362 0 0 1-1-.064h-.044c-.314-.024-.623-.054-.932-.083l-.799-.088c-.167-.02-.329-.044-.495-.064a15.758 15.758 0 0 1-.765-.113 29.31 29.31 0 0 1-.7-.113 24.257 24.257 0 0 1-.594-.108c-.289-.054-.579-.108-.863-.172a38.8 38.8 0 0 1-5.439-1.564 30.435 30.435 0 0 1-.849-.319c-.383-.152-.76-.309-1.138-.471a14.678 14.678 0 0 1-.711-.314 43.68 43.68 0 0 1-2.536-1.256c-.299-.167-.603-.333-.898-.505a20.712 20.712 0 0 1-.829-.491c-.005-.005-.015-.005-.02-.01-.505-.304-1-.623-1.486-.951-.039-.024-.078-.054-.113-.078a29.684 29.684 0 0 1-.785-.544c-.26-.182-.52-.368-.775-.564-.255-.186-.51-.382-.76-.584a14.484 14.484 0 0 1-.608-.49c-.324-.26-.642-.53-.956-.804-.211-.182-.417-.368-.623-.554l-.005-.005a17.78 17.78 0 0 1-.696-.652 21.457 21.457 0 0 1-.687-.667 34.23 34.23 0 0 1-1.952-2.099 34.008 34.008 0 0 1-1.207-1.457c-.235-.304-.47-.608-.7-.922a12.946 12.946 0 0 1-.398-.549 16.912 16.912 0 0 1-.608-.873 20.08 20.08 0 0 1-.45-.682 32.496 32.496 0 0 1-.619-.981 32.68 32.68 0 0 1-.927-1.618 38.25 38.25 0 0 1-1.584-3.257c-.108-.255-.22-.515-.324-.775a.322.322 0 0 1-.015-.039c-.078-.196-.157-.387-.231-.584-.069-.176-.137-.358-.206-.54a19.027 19.027 0 0 1-.2-.569 22.98 22.98 0 0 1-.281-.814c-.088-.275-.177-.549-.26-.829-.015-.025-.02-.054-.025-.083a21.513 21.513 0 0 1-.235-.809 24.294 24.294 0 0 1-.235-.873 40.141 40.141 0 0 1-.864-4.472 34.85 34.85 0 0 1-8.686-4.473c.451 26.214 21.839 47.317 48.156 47.317 26.601 0 48.17-21.564 48.17-48.17 0-26.355-21.182-47.773-47.454-48.15ZM34.89 59.971c.03-.294.059-.589.093-.883.034-.294.074-.588.113-.878.04-.294.083-.583.132-.873.044-.289.098-.579.147-.863a38.942 38.942 0 0 1 1.03-4.228v-.005c.064-.211.132-.426.201-.642a2.84 2.84 0 0 1 .088-.275c.078-.241.162-.481.245-.721.07-.211.142-.422.226-.628l.147-.392c.176-.466.363-.922.554-1.378.226-.535.461-1.064.716-1.584.118-.25.24-.495.363-.74.074-.157.157-.314.24-.466a17.074 17.074 0 0 1 .397-.745c.132-.25.27-.49.412-.736.128-.221.255-.441.383-.657.118-.191.231-.378.348-.564.108-.172.216-.343.33-.515.455-.711.936-1.407 1.441-2.084.167-.23.338-.451.51-.677.133-.172.265-.343.402-.51.397-.5.809-.995 1.241-1.476.172-.201.353-.397.53-.593.378-.417.765-.824 1.167-1.221.162-.162.324-.324.491-.481a31.953 31.953 0 0 1 1.349-1.251c.348-.314.706-.613 1.064-.912.181-.147.368-.299.554-.446a38.515 38.515 0 0 1 2.482-1.819c.24-.167.486-.329.736-.486a41.4 41.4 0 0 1 1.707-1.041c.28-.167.56-.319.84-.471.283-.157.568-.309.852-.451.284-.147.574-.294.863-.431.02-.01.034-.015.05-.025a36.552 36.552 0 0 1 2.737-1.187c.26-.108.524-.206.789-.299.231-.088.466-.172.701-.25.118-.044.24-.083.363-.127.26-.083.52-.172.785-.25.309-.098.623-.191.937-.28.314-.093.628-.177.946-.26.28-.069.559-.142.844-.206.211-.049.427-.098.638-.142.093-.025.191-.044.284-.064.162-.029.324-.064.485-.098.285-.054.569-.108.853-.157.206-.035.407-.069.613-.098a39.399 39.399 0 0 1 2.334-.299 26.812 26.812 0 0 0-5.59-7.597C46.012 20.315 31.025 35.342 27.278 54.4a26.912 26.912 0 0 0 7.611 5.571Z"/><path fill="url(#t)" d="M81.133 29.446a34.81 34.81 0 0 0-8.68-.564c.613 2.242.937 4.595.937 7.023 0 14.762-12.01 26.773-26.773 26.773-2.403 0-4.728-.319-6.945-.917h-.005a38.216 38.216 0 0 0-.054 1.981c0 2.29.221 4.532.647 6.699 2.06.378 4.183.574 6.356.574 19.392 0 35.11-15.718 35.11-35.11 0-2.206-.206-4.365-.593-6.459ZM46.616.795c-19.387 0-35.105 15.719-35.105 35.11 0 9.578 3.835 18.259 10.054 24.59a53.063 53.063 0 0 1 1.878-11.197 26.625 26.625 0 0 1-3.595-13.394c0-14.762 12.006-26.773 26.768-26.773 4.85 0 9.406 1.295 13.335 3.561a52.926 52.926 0 0 1 11.187-1.913A34.975 34.975 0 0 0 46.616.795Z"/><defs><linearGradient id="a" x1="2.415" x2="2.415" y1="175.906" y2="-32.519" gradientUnits="userSpaceOnUse"><stop stop-color="#fff"/><stop offset=".328" stop-color="#fff"/><stop offset=".524" stop-color="#fff"/><stop offset=".73" stop-color="#fff"/><stop offset="1" stop-color="#fff"/></linearGradient><linearGradient id="b" x1="13.919" x2="13.919" y1="184.51" y2="8.208" gradientUnits="userSpaceOnUse"><stop stop-color="#fff"/><stop offset=".328" stop-color="#fff"/><stop offset=".524" stop-color="#fff"/><stop offset=".73" stop-color="#fff"/><stop offset="1" stop-color="#fff"/></linearGradient><linearGradient id="c" x1="26.347" x2="26.347" y1="205.645" y2="7.501" gradientUnits="userSpaceOnUse"><stop stop-color="#fff"/><stop offset=".328" stop-color="#fff"/><stop offset=".524" stop-color="#fff"/><stop offset=".73" stop-color="#fff"/><stop offset="1" stop-color="#fff"/></linearGradient><linearGradient id="d" x1="41.569" x2="41.569" y1="238.03" y2="10.807" gradientUnits="userSpaceOnUse"><stop stop-color="#fff"/><stop offset=".328" stop-color="#fff"/><stop offset=".524" stop-color="#fff"/><stop offset=".73" stop-color="#fff"/><stop offset="1" stop-color="#fff"/></linearGradient><linearGradient id="e" x1="52.256" x2="52.256" y1="366.991" y2="-106.511" gradientUnits="userSpaceOnUse"><stop stop-color="#fff"/><stop offset=".328" stop-color="#fff"/><stop offset=".524" stop-color="#fff"/><stop offset=".73" stop-color="#fff"/><stop offset="1" stop-color="#fff"/></linearGradient><linearGradient id="f" x1="63.676" x2="63.676" y1="238.616" y2="74.3" gradientUnits="userSpaceOnUse"><stop stop-color="#fff"/><stop offset=".328" stop-color="#fff"/><stop offset=".524" stop-color="#fff"/><stop offset=".73" stop-color="#fff"/><stop offset="1" stop-color="#fff"/></linearGradient><linearGradient id="g" x1="76.544" x2="76.544" y1="266.663" y2="79.658" gradientUnits="userSpaceOnUse"><stop stop-color="#fff"/><stop offset=".328" stop-color="#fff"/><stop offset=".524" stop-color="#fff"/><stop offset=".73" stop-color="#fff"/><stop offset="1" stop-color="#fff"/></linearGradient><linearGradient id="h" x1="94.486" x2="94.486" y1="277.758" y2="103.812" gradientUnits="userSpaceOnUse"><stop stop-color="#fff"/><stop offset=".328" stop-color="#fff"/><stop offset=".524" stop-color="#fff"/><stop offset=".73" stop-color="#fff"/><stop offset="1" stop-color="#fff"/></linearGradient><linearGradient id="i" x1="107.204" x2="107.204" y1="303.045" y2="116.052" gradientUnits="userSpaceOnUse"><stop stop-color="#fff"/><stop offset=".328" stop-color="#fff"/><stop offset=".524" stop-color="#fff"/><stop offset=".73" stop-color="#fff"/><stop offset="1" stop-color="#fff"/></linearGradient><linearGradient id="j" x1="119.613" x2="119.613" y1="315.778" y2="131.456" gradientUnits="userSpaceOnUse"><stop stop-color="#fff"/><stop offset=".328" stop-color="#fff"/><stop offset=".524" stop-color="#fff"/><stop offset=".73" stop-color="#fff"/><stop offset="1" stop-color="#fff"/></linearGradient><linearGradient id="k" x1="131.914" x2="131.914" y1="333.748" y2="146.755" gradientUnits="userSpaceOnUse"><stop stop-color="#fff"/><stop offset=".328" stop-color="#fff"/><stop offset=".524" stop-color="#fff"/><stop offset=".73" stop-color="#fff"/><stop offset="1" stop-color="#fff"/></linearGradient><linearGradient id="l" x1="6.395" x2="6.395" y1="159.113" y2="9.39" gradientUnits="userSpaceOnUse"><stop stop-color="#fff"/><stop offset=".328" stop-color="#fff"/><stop offset=".524" stop-color="#fff"/><stop offset=".73" stop-color="#fff"/><stop offset="1" stop-color="#fff"/></linearGradient><linearGradient id="m" x1="26.886" x2="26.886" y1="178.883" y2="30.836" gradientUnits="userSpaceOnUse"><stop stop-color="#fff"/><stop offset=".328" stop-color="#fff"/><stop offset=".524" stop-color="#fff"/><stop offset=".73" stop-color="#fff"/><stop offset="1" stop-color="#fff"/></linearGradient><linearGradient id="n" x1="48.962" x2="48.962" y1="186.388" y2="70.51" gradientUnits="userSpaceOnUse"><stop stop-color="#fff"/><stop offset=".328" stop-color="#fff"/><stop offset=".524" stop-color="#fff"/><stop offset=".73" stop-color="#fff"/><stop offset="1" stop-color="#fff"/></linearGradient><linearGradient id="o" x1="70.132" x2="70.132" y1="234.316" y2="63.639" gradientUnits="userSpaceOnUse"><stop stop-color="#fff"/><stop offset=".328" stop-color="#fff"/><stop offset=".524" stop-color="#fff"/><stop offset=".73" stop-color="#fff"/><stop offset="1" stop-color="#fff"/></linearGradient><linearGradient id="p" x1="88.462" x2="88.462" y1="241.532" y2="89.082" gradientUnits="userSpaceOnUse"><stop stop-color="#fff"/><stop offset=".328" stop-color="#fff"/><stop offset=".524" stop-color="#fff"/><stop offset=".73" stop-color="#fff"/><stop offset="1" stop-color="#fff"/></linearGradient><linearGradient id="q" x1="108.421" x2="108.421" y1="254.203" y2="111.998" gradientUnits="userSpaceOnUse"><stop stop-color="#fff"/><stop offset=".328" stop-color="#fff"/><stop offset=".524" stop-color="#fff"/><stop offset=".73" stop-color="#fff"/><stop offset="1" stop-color="#fff"/></linearGradient><linearGradient id="r" x1="128.154" x2="128.154" y1="291.966" y2="131.161" gradientUnits="userSpaceOnUse"><stop stop-color="#fff"/><stop offset=".328" stop-color="#fff"/><stop offset=".524" stop-color="#fff"/><stop offset=".73" stop-color="#fff"/><stop offset="1" stop-color="#fff"/></linearGradient><linearGradient id="s" x1="26.381" x2="122.707" y1="63.75" y2="63.75" gradientUnits="userSpaceOnUse"><stop stop-color="#fff"/><stop offset=".328" stop-color="#fff"/><stop offset=".524" stop-color="#fff"/><stop offset=".73" stop-color="#fff"/><stop offset="1" stop-color="#fff"/></linearGradient><linearGradient id="t" x1="11.511" x2="81.726" y1="35.905" y2="35.905" gradientUnits="userSpaceOnUse"><stop stop-color="#fff"/><stop offset=".328" stop-color="#fff"/><stop offset=".524" stop-color="#fff"/><stop offset=".73" stop-color="#fff"/><stop offset="1" stop-color="#fff"/></linearGradient></defs></svg>