<svg xmlns="http://www.w3.org/2000/svg" width="131" height="171" fill="none"><path fill="url(#a)" d="M1.86 170.251h1.221v-6.943h1.854v-1.147H0v1.147h1.86v6.943Z"/><path fill="url(#b)" d="m11.338 170.251.901-1.965h3.463l.849 1.965h1.336l-3.861-8.598-4.003 8.598h1.315Zm2.667-5.863 1.2 2.751h-2.457l1.257-2.751Z"/><path fill="url(#c)" d="M27.743 163.156c.954 0 1.762.442 2.426 1.326l.87-.833c-.507-.58-1.022-.999-1.545-1.258a4.111 4.111 0 0 0-1.771-.388c-1.177 0-2.176.41-2.997 1.231-.821.817-1.231 1.813-1.231 2.986 0 1.149.404 2.134 1.21 2.955.807.817 1.776 1.226 2.908 1.226 1.159 0 2.115-.423 2.866-1.268.332-.377.568-.782.707-1.215.143-.468.215-1.006.215-1.614v-.267h-3.343v1.147h2.017c-.056.569-.323 1.058-.801 1.467a2.441 2.441 0 0 1-1.619.608c-.706 0-1.36-.271-1.965-.812-.646-.583-.969-1.326-.969-2.227 0-.873.29-1.6.87-2.18.578-.588 1.296-.884 2.152-.884Z"/><path fill="url(#d)" d="M39.269 162.161v8.09h3.599v-1.148H40.49v-6.942h-1.22Z"/><path fill="url(#e)" d="M50.612 162.161h-1.22v8.09h1.22v-8.09Z"/><path fill="url(#f)" d="M57.921 170.251h1.221v-5.664l5.9 6.156v-8.582h-1.221v5.622l-5.9-6.172v8.64Z"/><path fill="url(#g)" d="M72.345 170.251h4.464v-1.148h-3.243v-2.704h3.149v-1.147h-3.149v-1.944h3.243v-1.147h-4.464v8.09Z"/><path fill="url(#h)" d="M94.713 165.326h-3.49v-3.165h-1.221v8.09h1.221v-3.778h3.49v3.778h1.22v-8.09h-1.22v3.165Z"/><path fill="url(#i)" d="M107.701 163.308v-1.147h-4.464v8.09h4.464v-1.148h-3.243v-2.704h3.149v-1.147h-3.149v-1.944h3.243Z"/><path fill="url(#j)" d="M117.41 166.805a2.214 2.214 0 0 0 1.296-.796c.329-.412.494-.899.494-1.475 0-.734-.261-1.324-.782-1.77-.48-.405-1.248-.604-2.318-.604h-1.434v8.087h1.221v-3.306h.22l2.312 3.306h1.495l-2.504-3.442Zm-1.523-.926v-2.572h.439c1.125 0 1.687.419 1.687 1.242 0 .885-.583 1.331-1.735 1.331l-.391-.001Z"/><path fill="url(#k)" d="M130.958 163.308v-1.147h-4.464v8.09h4.464v-1.148h-3.243v-2.704h3.149v-1.147h-3.149v-1.944h3.243Z"/><path fill="url(#l)" d="m27.002 75.16 53.689-53.689V0L27.002 53.695V75.16Z"/><path fill="url(#m)" d="m27.002 121.824 53.689-53.695V50.78l-53.689 53.689v17.355Z"/><path fill="url(#n)" d="m50.263 75.16 53.695-53.689V3.429L50.263 57.125V75.16Z"/><path fill="url(#o)" d="m103.958 50.094-53.695 53.689v18.042l53.695-53.696V50.094Z"/><path fill="url(#p)" d="M2.211 151.841a7.138 7.138 0 0 0 2.451 1.558c.948.367 1.991.55 3.127.55 1.08 0 2.098-.208 3.054-.623.956-.415 1.766-1.08 2.431-1.994l-2.16-1.537c-.486.623-1.009 1.077-1.57 1.361a3.797 3.797 0 0 1-1.735.426c-.762 0-1.45-.138-2.067-.415a4.783 4.783 0 0 1-1.589-1.143 5.111 5.111 0 0 1-1.029-1.724 6.334 6.334 0 0 1-.364-2.181c0-.734.121-1.419.364-2.057a5.068 5.068 0 0 1 1.03-1.672 4.727 4.727 0 0 1 1.588-1.122c.616-.27 1.305-.405 2.067-.405.512 0 1.021.097 1.527.291.505.194 1.028.582 1.568 1.163l2.036-1.496c-.734-.845-1.527-1.444-2.378-1.797a7.174 7.174 0 0 0-2.774-.53c-1.136 0-2.178.184-3.127.551a7.043 7.043 0 0 0-2.45 1.569 7.184 7.184 0 0 0-1.61 2.462c-.389.963-.583 2.033-.583 3.21 0 1.15.194 2.195.582 3.137.388.94.925 1.746 1.611 2.418Z"/><path fill="url(#q)" d="M20.596 151.841a7.138 7.138 0 0 0 2.451 1.558c.949.367 1.991.55 3.127.55 1.149-.014 2.202-.211 3.158-.592a7.389 7.389 0 0 0 2.472-1.589 7.182 7.182 0 0 0 1.62-2.431c.388-.942.582-1.987.582-3.137 0-1.177-.194-2.244-.582-3.199a7.146 7.146 0 0 0-1.62-2.451 6.91 6.91 0 0 0-2.472-1.548c-.956-.353-2.009-.523-3.158-.509-1.136 0-2.178.184-3.127.551a7.043 7.043 0 0 0-2.451 1.569 7.184 7.184 0 0 0-1.61 2.462c-.388.963-.582 2.033-.582 3.21 0 1.15.194 2.195.582 3.137a7.16 7.16 0 0 0 1.61 2.419Zm.914-7.78a5.082 5.082 0 0 1 1.028-1.672 4.721 4.721 0 0 1 1.59-1.122c.616-.27 1.305-.405 2.067-.405.761 0 1.454.135 2.078.405.623.27 1.156.644 1.599 1.122a5.112 5.112 0 0 1 1.029 1.672c.242.637.363 1.323.363 2.057a6.33 6.33 0 0 1-.363 2.181 5.128 5.128 0 0 1-1.029 1.724 4.753 4.753 0 0 1-1.599 1.143c-.623.277-1.316.415-2.078.415-.762 0-1.45-.138-2.067-.415a4.787 4.787 0 0 1-1.59-1.143 5.11 5.11 0 0 1-1.028-1.724 6.31 6.31 0 0 1-.364-2.181c.001-.734.122-1.42.364-2.057Z"/><path fill="url(#r)" d="M44.705 138.867h-3.989v14.709h2.493V141.36h.041l4.467 12.216h1.83l4.465-12.216h.041v12.216h2.493v-14.709H52.6l-3.968 10.304-3.926-10.304Z"/><path fill="url(#s)" d="M66.663 147.489h1.87c.775 0 1.52-.055 2.233-.166.713-.111 1.34-.322 1.88-.634.54-.311.969-.751 1.288-1.319.318-.568.478-1.316.478-2.244 0-.817-.149-1.499-.446-2.046a3.576 3.576 0 0 0-1.195-1.309 5.063 5.063 0 0 0-1.735-.696 9.942 9.942 0 0 0-2.046-.208h-4.944v14.708h2.617v-6.086Zm0-6.378h1.87c.346 0 .706.021 1.08.062.374.042.713.135 1.018.281.304.145.554.353.748.623.194.27.291.634.291 1.091 0 .499-.107.887-.322 1.163a1.972 1.972 0 0 1-.831.623c-.34.139-.71.222-1.111.249-.402.028-.789.042-1.163.042h-1.579l-.001-4.134Z"/><path fill="url(#t)" d="M81.975 150.21h6.378l1.371 3.365h2.991l-6.336-14.708h-2.264l-6.399 14.708h2.93l1.33-3.365Zm3.2-8.226 2.263 5.983h-4.57l2.306-5.983Z"/><path fill="url(#u)" d="M98.51 138.867v14.709h2.618v-11.281h.042l7.271 11.281h3.324v-14.709h-2.618v10.928h-.041l-7.126-10.928h-3.47Z"/><path fill="url(#v)" d="M122.796 153.576h2.617v-6.295l5.527-8.414h-3.116l-3.657 5.859-3.615-5.859h-3.282l5.526 8.414v6.295Z"/><defs><linearGradient id="a" x1="2.468" x2="2.468" y1="167.986" y2="-48.112" gradientUnits="userSpaceOnUse"><stop stop-color="#fff"/><stop offset=".328" stop-color="#fff"/><stop offset=".524" stop-color="#fff"/><stop offset=".73" stop-color="#fff"/><stop offset="1" stop-color="#fff"/></linearGradient><linearGradient id="b" x1="13.955" x2="13.955" y1="178.848" y2="31.102" gradientUnits="userSpaceOnUse"><stop stop-color="#fff"/><stop offset=".328" stop-color="#fff"/><stop offset=".524" stop-color="#fff"/><stop offset=".73" stop-color="#fff"/><stop offset="1" stop-color="#fff"/></linearGradient><linearGradient id="c" x1="27.446" x2="27.446" y1="193.356" y2="50.644" gradientUnits="userSpaceOnUse"><stop stop-color="#fff"/><stop offset=".328" stop-color="#fff"/><stop offset=".524" stop-color="#fff"/><stop offset=".73" stop-color="#fff"/><stop offset="1" stop-color="#fff"/></linearGradient><linearGradient id="d" x1="41.069" x2="41.069" y1="256.837" y2="-36.812" gradientUnits="userSpaceOnUse"><stop stop-color="#fff"/><stop offset=".328" stop-color="#fff"/><stop offset=".524" stop-color="#fff"/><stop offset=".73" stop-color="#fff"/><stop offset="1" stop-color="#fff"/></linearGradient><linearGradient id="e" x1="50.002" x2="50.002" y1="363.377" y2="-158.917" gradientUnits="userSpaceOnUse"><stop stop-color="#fff"/><stop offset=".328" stop-color="#fff"/><stop offset=".524" stop-color="#fff"/><stop offset=".73" stop-color="#fff"/><stop offset="1" stop-color="#fff"/></linearGradient><linearGradient id="f" x1="61.481" x2="61.481" y1="237.581" y2="83.179" gradientUnits="userSpaceOnUse"><stop stop-color="#fff"/><stop offset=".328" stop-color="#fff"/><stop offset=".524" stop-color="#fff"/><stop offset=".73" stop-color="#fff"/><stop offset="1" stop-color="#fff"/></linearGradient><linearGradient id="g" x1="74.577" x2="74.577" y1="280.801" y2="75.933" gradientUnits="userSpaceOnUse"><stop stop-color="#fff"/><stop offset=".328" stop-color="#fff"/><stop offset=".524" stop-color="#fff"/><stop offset=".73" stop-color="#fff"/><stop offset="1" stop-color="#fff"/></linearGradient><linearGradient id="h" x1="92.968" x2="92.968" y1="274.701" y2="114.001" gradientUnits="userSpaceOnUse"><stop stop-color="#fff"/><stop offset=".328" stop-color="#fff"/><stop offset=".524" stop-color="#fff"/><stop offset=".73" stop-color="#fff"/><stop offset="1" stop-color="#fff"/></linearGradient><linearGradient id="i" x1="105.469" x2="105.469" y1="323.472" y2="118.604" gradientUnits="userSpaceOnUse"><stop stop-color="#fff"/><stop offset=".328" stop-color="#fff"/><stop offset=".524" stop-color="#fff"/><stop offset=".73" stop-color="#fff"/><stop offset="1" stop-color="#fff"/></linearGradient><linearGradient id="j" x1="117.29" x2="117.29" y1="343.631" y2="135.359" gradientUnits="userSpaceOnUse"><stop stop-color="#fff"/><stop offset=".328" stop-color="#fff"/><stop offset=".524" stop-color="#fff"/><stop offset=".73" stop-color="#fff"/><stop offset="1" stop-color="#fff"/></linearGradient><linearGradient id="k" x1="128.727" x2="128.727" y1="358.729" y2="153.862" gradientUnits="userSpaceOnUse"><stop stop-color="#fff"/><stop offset=".328" stop-color="#fff"/><stop offset=".524" stop-color="#fff"/><stop offset=".73" stop-color="#fff"/><stop offset="1" stop-color="#fff"/></linearGradient><linearGradient id="l" x1="27.002" x2="80.691" y1="37.58" y2="37.58" gradientUnits="userSpaceOnUse"><stop stop-color="#fff"/><stop offset=".328" stop-color="#fff"/><stop offset=".524" stop-color="#fff"/><stop offset=".73" stop-color="#fff"/><stop offset="1" stop-color="#fff"/></linearGradient><linearGradient id="m" x1="27.002" x2="80.691" y1="86.302" y2="86.302" gradientUnits="userSpaceOnUse"><stop stop-color="#fff"/><stop offset=".328" stop-color="#fff"/><stop offset=".524" stop-color="#fff"/><stop offset=".73" stop-color="#fff"/><stop offset="1" stop-color="#fff"/></linearGradient><linearGradient id="n" x1="50.263" x2="103.958" y1="39.294" y2="39.294" gradientUnits="userSpaceOnUse"><stop stop-color="#fff"/><stop offset=".328" stop-color="#fff"/><stop offset=".524" stop-color="#fff"/><stop offset=".73" stop-color="#fff"/><stop offset="1" stop-color="#fff"/></linearGradient><linearGradient id="o" x1="50.263" x2="103.958" y1="85.959" y2="85.959" gradientUnits="userSpaceOnUse"><stop stop-color="#fff"/><stop offset=".328" stop-color="#fff"/><stop offset=".524" stop-color="#fff"/><stop offset=".73" stop-color="#fff"/><stop offset="1" stop-color="#fff"/></linearGradient><linearGradient id="p" x1="6.646" x2="6.646" y1="153.151" y2="8.731" gradientUnits="userSpaceOnUse"><stop stop-color="#fff"/><stop offset=".328" stop-color="#fff"/><stop offset=".524" stop-color="#fff"/><stop offset=".73" stop-color="#fff"/><stop offset="1" stop-color="#fff"/></linearGradient><linearGradient id="q" x1="26.205" x2="26.205" y1="171.379" y2="47.57" gradientUnits="userSpaceOnUse"><stop stop-color="#fff"/><stop offset=".328" stop-color="#fff"/><stop offset=".524" stop-color="#fff"/><stop offset=".73" stop-color="#fff"/><stop offset="1" stop-color="#fff"/></linearGradient><linearGradient id="r" x1="48.631" x2="48.631" y1="187.367" y2="79.561" gradientUnits="userSpaceOnUse"><stop stop-color="#fff"/><stop offset=".328" stop-color="#fff"/><stop offset=".524" stop-color="#fff"/><stop offset=".73" stop-color="#fff"/><stop offset="1" stop-color="#fff"/></linearGradient><linearGradient id="s" x1="69.229" x2="69.229" y1="235.028" y2="71.826" gradientUnits="userSpaceOnUse"><stop stop-color="#fff"/><stop offset=".328" stop-color="#fff"/><stop offset=".524" stop-color="#fff"/><stop offset=".73" stop-color="#fff"/><stop offset="1" stop-color="#fff"/></linearGradient><linearGradient id="t" x1="85.215" x2="85.215" y1="228.483" y2="105.254" gradientUnits="userSpaceOnUse"><stop stop-color="#fff"/><stop offset=".328" stop-color="#fff"/><stop offset=".524" stop-color="#fff"/><stop offset=".73" stop-color="#fff"/><stop offset="1" stop-color="#fff"/></linearGradient><linearGradient id="u" x1="105.138" x2="105.138" y1="251.687" y2="124.821" gradientUnits="userSpaceOnUse"><stop stop-color="#fff"/><stop offset=".328" stop-color="#fff"/><stop offset=".524" stop-color="#fff"/><stop offset=".73" stop-color="#fff"/><stop offset="1" stop-color="#fff"/></linearGradient><linearGradient id="v" x1="124.105" x2="124.105" y1="279.742" y2="144.528" gradientUnits="userSpaceOnUse"><stop stop-color="#fff"/><stop offset=".328" stop-color="#fff"/><stop offset=".524" stop-color="#fff"/><stop offset=".73" stop-color="#fff"/><stop offset="1" stop-color="#fff"/></linearGradient></defs></svg>