<svg xmlns="http://www.w3.org/2000/svg" width="118" height="138" fill="none"><path fill="url(#a)" d="m38.926 80.803 8.204 4.735 10.028-5.786-8.204-4.735V5.51L39.419 0l-.837.482L.719 22.343v11.58l38.207-22.068v68.948Z"/><path fill="url(#b)" d="M68.099 5.51v72.937L39.42 95.011 10.74 78.447V33.15L.719 38.936v41.868l38.701 22.349 38.701-22.349V11.855l38.214 22.068v-11.58L77.634 0l-9.535 5.51Z"/><path fill="url(#c)" d="M72.894 88.837 62.865 94.63l14.769 8.523 38.701-22.349V38.937l-10.029-5.787v41.867L77.633 91.581l-4.739-2.744Z"/><path fill="url(#d)" d="M26.281 134.109h1.143v3.253h.816v-3.253h1.144v-.816h-3.103v.816Z"/><path fill="url(#e)" d="m33.914 133.293-1.471 4.069h.864l.413-1.138h1.251l.413 1.138h.864l-1.471-4.069h-.863Zm.102 2.115.327-.918.333.918h-.66Z"/><path fill="url(#f)" d="M42.723 135.247h-1.219v.816h.977a1.223 1.223 0 0 1-2.201-.736 1.222 1.222 0 0 1 2.051-.891l.574-.58a2.023 2.023 0 0 0-1.401-.564 2.037 2.037 0 0 0-2.035 2.034c0 1.122.913 2.035 2.035 2.035a2.037 2.037 0 0 0 2.035-2.035c0-.027-.005-.054-.005-.081h-.811v.002Z"/><path fill="url(#g)" d="M48.812 133.293h-.811v4.069h2.292v-.816h-1.481v-3.253Z"/><path fill="url(#h)" d="M54.701 133.293h-.811v4.069h.811v-4.069Z"/><path fill="url(#i)" d="m60.873 136.009-1.626-2.716h-.951v4.069h.811v-2.711l1.632 2.711h.945v-4.069h-.811v2.716Z"/><path fill="url(#j)" d="M65.28 137.362h2.453v-.816h-1.642v-.81h1.642v-.816h-1.642v-.811h1.642v-.816H65.28v4.069Z"/><path fill="url(#k)" d="M76.015 134.92h-1.482v-1.627h-.81v4.069h.81v-1.626h1.482v1.626h.811v-4.069h-.811v1.627Z"/><path fill="url(#l)" d="M80.422 137.362h2.453v-.816h-1.642v-.81h1.642v-.816h-1.642v-.811h1.642v-.816h-2.453v4.069Z"/><path fill="url(#m)" d="M88.909 134.517a1.22 1.22 0 0 0-1.22-1.224h-1.218v4.069h.811v-1.626h.16l.737 1.626h.89l-.8-1.771a1.22 1.22 0 0 0 .64-1.074Zm-1.22.403h-.407v-.81h.408c.225 0 .408.182.408.408a.407.407 0 0 1-.408.402Z"/><path fill="url(#n)" d="M92.585 137.362h2.454v-.816h-1.643v-.81h1.643v-.816h-1.643v-.811h1.643v-.816h-2.454v4.069Z"/><path fill="url(#o)" d="M6.227 118.593a3.68 3.68 0 0 1 2.53 1.002l1.758-1.775a6.19 6.19 0 0 0-4.288-1.725A6.234 6.234 0 0 0 0 122.322a6.234 6.234 0 0 0 6.227 6.227c1.66 0 3.171-.657 4.288-1.725l-1.758-1.758a3.743 3.743 0 0 1-2.53.986 3.73 3.73 0 0 1-3.746-3.73c0-2.053 1.676-3.729 3.746-3.729Z"/><path fill="url(#p)" d="M23.644 116.095a6.234 6.234 0 0 0-6.227 6.227 6.234 6.234 0 0 0 6.227 6.227 6.234 6.234 0 0 0 6.227-6.227 6.234 6.234 0 0 0-6.227-6.227Zm0 9.974a3.745 3.745 0 0 1-3.746-3.746 3.738 3.738 0 1 1 3.746 3.746Z"/><path fill="url(#q)" d="M50.229 128.55v-12.455h-2.678l-3.631 9.103-3.648-9.103h-2.678v12.455h2.481v-6.227l2.497 6.227h2.679l2.497-6.227v6.227h2.481Z"/><path fill="url(#r)" d="M61.435 116.095h-3.483v12.455h2.481v-4.979h1.019c2.054 0 3.713-1.676 3.713-3.73a3.73 3.73 0 0 0-3.73-3.746Zm0 4.979h-1.002v-2.481h1.002c.69 0 1.249.559 1.249 1.249 0 .673-.558 1.232-1.249 1.232Z"/><path fill="url(#s)" d="m75.747 116.095-4.502 12.455h2.645l1.265-3.483h3.829l1.265 3.483h2.645l-4.502-12.455h-2.645Zm.312 6.474 1.003-2.81 1.019 2.81h-2.022Z"/><path fill="url(#t)" d="m98.175 124.41-4.978-8.315H90.29v12.455h2.481v-8.298l4.995 8.298h2.891v-12.455h-2.481v8.315Z"/><path fill="url(#u)" d="m112.552 119.546-1.725-3.451h-2.776l3.253 6.524v5.931h2.481v-5.931l3.253-6.524h-2.777l-1.709 3.451Z"/><defs><linearGradient id="a" x1=".719" x2="57.158" y1="42.769" y2="42.769" gradientUnits="userSpaceOnUse"><stop stop-color="#fff"/><stop offset=".328" stop-color="#fff"/><stop offset=".524" stop-color="#fff"/><stop offset=".73" stop-color="#fff"/><stop offset="1" stop-color="#fff"/></linearGradient><linearGradient id="b" x1=".719" x2="116.335" y1="51.577" y2="51.577" gradientUnits="userSpaceOnUse"><stop stop-color="#fff"/><stop offset=".328" stop-color="#fff"/><stop offset=".524" stop-color="#fff"/><stop offset=".73" stop-color="#fff"/><stop offset="1" stop-color="#fff"/></linearGradient><linearGradient id="c" x1="62.865" x2="116.335" y1="68.151" y2="68.151" gradientUnits="userSpaceOnUse"><stop stop-color="#fff"/><stop offset=".328" stop-color="#fff"/><stop offset=".524" stop-color="#fff"/><stop offset=".73" stop-color="#fff"/><stop offset="1" stop-color="#fff"/></linearGradient><linearGradient id="d" x1="27.832" x2="27.832" y1="156.522" y2="43.415" gradientUnits="userSpaceOnUse"><stop stop-color="#fff"/><stop offset=".328" stop-color="#fff"/><stop offset=".524" stop-color="#fff"/><stop offset=".73" stop-color="#fff"/><stop offset="1" stop-color="#fff"/></linearGradient><linearGradient id="e" x1="34.346" x2="34.346" y1="159.739" y2="61.092" gradientUnits="userSpaceOnUse"><stop stop-color="#fff"/><stop offset=".328" stop-color="#fff"/><stop offset=".524" stop-color="#fff"/><stop offset=".73" stop-color="#fff"/><stop offset="1" stop-color="#fff"/></linearGradient><linearGradient id="f" x1="41.504" x2="41.504" y1="165.192" y2="74.856" gradientUnits="userSpaceOnUse"><stop stop-color="#fff"/><stop offset=".328" stop-color="#fff"/><stop offset=".524" stop-color="#fff"/><stop offset=".73" stop-color="#fff"/><stop offset="1" stop-color="#fff"/></linearGradient><linearGradient id="g" x1="49.147" x2="49.147" y1="197.655" y2="48.003" gradientUnits="userSpaceOnUse"><stop stop-color="#fff"/><stop offset=".328" stop-color="#fff"/><stop offset=".524" stop-color="#fff"/><stop offset=".73" stop-color="#fff"/><stop offset="1" stop-color="#fff"/></linearGradient><linearGradient id="h" x1="54.295" x2="54.295" y1="230.077" y2="31.421" gradientUnits="userSpaceOnUse"><stop stop-color="#fff"/><stop offset=".328" stop-color="#fff"/><stop offset=".524" stop-color="#fff"/><stop offset=".73" stop-color="#fff"/><stop offset="1" stop-color="#fff"/></linearGradient><linearGradient id="i" x1="59.99" x2="59.99" y1="180.603" y2="96.554" gradientUnits="userSpaceOnUse"><stop stop-color="#fff"/><stop offset=".328" stop-color="#fff"/><stop offset=".524" stop-color="#fff"/><stop offset=".73" stop-color="#fff"/><stop offset="1" stop-color="#fff"/></linearGradient><linearGradient id="j" x1="66.507" x2="66.507" y1="200.087" y2="93.804" gradientUnits="userSpaceOnUse"><stop stop-color="#fff"/><stop offset=".328" stop-color="#fff"/><stop offset=".524" stop-color="#fff"/><stop offset=".73" stop-color="#fff"/><stop offset="1" stop-color="#fff"/></linearGradient><linearGradient id="k" x1="75.274" x2="75.274" y1="197.889" y2="108.118" gradientUnits="userSpaceOnUse"><stop stop-color="#fff"/><stop offset=".328" stop-color="#fff"/><stop offset=".524" stop-color="#fff"/><stop offset=".73" stop-color="#fff"/><stop offset="1" stop-color="#fff"/></linearGradient><linearGradient id="l" x1="81.649" x2="81.649" y1="216.732" y2="110.458" gradientUnits="userSpaceOnUse"><stop stop-color="#fff"/><stop offset=".328" stop-color="#fff"/><stop offset=".524" stop-color="#fff"/><stop offset=".73" stop-color="#fff"/><stop offset="1" stop-color="#fff"/></linearGradient><linearGradient id="m" x1="87.771" x2="87.771" y1="231.643" y2="115.592" gradientUnits="userSpaceOnUse"><stop stop-color="#fff"/><stop offset=".328" stop-color="#fff"/><stop offset=".524" stop-color="#fff"/><stop offset=".73" stop-color="#fff"/><stop offset="1" stop-color="#fff"/></linearGradient><linearGradient id="n" x1="93.812" x2="93.812" y1="230.742" y2="124.468" gradientUnits="userSpaceOnUse"><stop stop-color="#fff"/><stop offset=".328" stop-color="#fff"/><stop offset=".524" stop-color="#fff"/><stop offset=".73" stop-color="#fff"/><stop offset="1" stop-color="#fff"/></linearGradient><linearGradient id="o" x1="5.258" x2="5.258" y1="120.465" y2="24.113" gradientUnits="userSpaceOnUse"><stop stop-color="#fff"/><stop offset=".328" stop-color="#fff"/><stop offset=".524" stop-color="#fff"/><stop offset=".73" stop-color="#fff"/><stop offset="1" stop-color="#fff"/></linearGradient><linearGradient id="p" x1="23.644" x2="23.644" y1="137.901" y2="48.73" gradientUnits="userSpaceOnUse"><stop stop-color="#fff"/><stop offset=".328" stop-color="#fff"/><stop offset=".524" stop-color="#fff"/><stop offset=".73" stop-color="#fff"/><stop offset="1" stop-color="#fff"/></linearGradient><linearGradient id="q" x1="43.912" x2="43.912" y1="150.755" y2="78.659" gradientUnits="userSpaceOnUse"><stop stop-color="#fff"/><stop offset=".328" stop-color="#fff"/><stop offset=".524" stop-color="#fff"/><stop offset=".73" stop-color="#fff"/><stop offset="1" stop-color="#fff"/></linearGradient><linearGradient id="r" x1="61.559" x2="61.559" y1="191.469" y2="72.448" gradientUnits="userSpaceOnUse"><stop stop-color="#fff"/><stop offset=".328" stop-color="#fff"/><stop offset=".524" stop-color="#fff"/><stop offset=".73" stop-color="#fff"/><stop offset="1" stop-color="#fff"/></linearGradient><linearGradient id="s" x1="77.069" x2="77.069" y1="194.908" y2="96.265" gradientUnits="userSpaceOnUse"><stop stop-color="#fff"/><stop offset=".328" stop-color="#fff"/><stop offset=".524" stop-color="#fff"/><stop offset=".73" stop-color="#fff"/><stop offset="1" stop-color="#fff"/></linearGradient><linearGradient id="t" x1="95.472" x2="95.472" y1="202.442" y2="118.389" gradientUnits="userSpaceOnUse"><stop stop-color="#fff"/><stop offset=".328" stop-color="#fff"/><stop offset=".524" stop-color="#fff"/><stop offset=".73" stop-color="#fff"/><stop offset="1" stop-color="#fff"/></linearGradient><linearGradient id="u" x1="112.545" x2="112.545" y1="269.284" y2="142.139" gradientUnits="userSpaceOnUse"><stop stop-color="#fff"/><stop offset=".328" stop-color="#fff"/><stop offset=".524" stop-color="#fff"/><stop offset=".73" stop-color="#fff"/><stop offset="1" stop-color="#fff"/></linearGradient></defs></svg>