<svg xmlns="http://www.w3.org/2000/svg" width="133" height="176" fill="none"><path fill="url(#a)" d="M94.619 41.962 77.191 59.39l6.731 6.732 17.428-17.429-6.731-6.731Z"/><path fill="url(#b)" d="M59.389 77.192 41.961 94.62l6.731 6.731 17.429-17.428-6.732-6.731Z"/><path fill="url(#c)" d="M72.852 55.051 90.28 37.623l-6.731-6.732L66.121 48.32l6.731 6.731Z"/><path fill="url(#d)" d="m55.05 72.853-6.731-6.731L30.891 83.55l6.731 6.731L55.05 72.853Z"/><path fill="url(#e)" d="M55.05 59.39 37.622 41.962l-6.73 6.731 17.427 17.429 6.731-6.732Z"/><path fill="url(#f)" d="m59.389 55.051 6.732-6.731-17.429-17.429-6.731 6.732 17.428 17.428Z"/><path fill="url(#g)" d="m77.191 72.853 17.428 17.428 6.731-6.731-17.428-17.428-6.731 6.731Z"/><path fill="url(#h)" d="M90.28 94.62 72.852 77.192l-6.731 6.731 17.428 17.428 6.731-6.731Z"/><path fill="url(#i)" d="m90.28 108.082-6.731-6.731-17.428 17.429-17.429-17.429-6.731 6.731 24.16 24.16 24.159-24.16Z"/><path fill="url(#j)" d="m30.891 48.693-6.731-6.731L0 66.122l24.16 24.159 6.731-6.731-17.429-17.428 17.43-17.429Z"/><path fill="url(#k)" d="m108.082 41.962-6.732 6.731 17.429 17.429L101.35 83.55l6.732 6.731 24.159-24.159-24.159-24.16Z"/><path fill="url(#l)" d="m83.549 30.891 6.731-6.731L66.121 0l-24.16 24.16 6.731 6.731 17.429-17.428 17.428 17.428Z"/><path fill="url(#m)" d="M10.619 162.374c1.042-.792 1.751-1.98 2.147-3.502l.042-.125-2.105-.521-.042.125c-.25 1.125-.73 1.98-1.417 2.564-.709.563-1.563.854-2.585.854a4.607 4.607 0 0 1-2.334-.625c-.709-.417-1.23-1.063-1.563-1.917-.354-.855-.521-1.876-.521-3.023 0-.896.146-1.772.438-2.605a4.09 4.09 0 0 1 1.48-2.001c.709-.48 1.605-.729 2.647-.729.917 0 1.668.208 2.272.667.604.438 1.063 1.146 1.375 2.126l.042.104 2.084-.48-.042-.125c-.396-1.293-1.084-2.314-2.064-3.043-.98-.709-2.189-1.063-3.627-1.063-1.251 0-2.418.271-3.481.834a6.002 6.002 0 0 0-2.439 2.501c-.563 1.084-.854 2.376-.854 3.814 0 1.334.25 2.606.75 3.752.5 1.167 1.251 2.084 2.231 2.689.959.625 2.23.938 3.773.938 1.479 0 2.751-.417 3.793-1.209Z"/><path fill="url(#n)" d="M32.152 160.144c.584-1.105.875-2.398.875-3.815 0-1.397-.292-2.648-.834-3.752a6.264 6.264 0 0 0-2.439-2.606c-1.063-.625-2.272-.938-3.586-.938-2.022 0-3.69.667-4.961 1.98-1.272 1.313-1.918 3.168-1.918 5.482a7.6 7.6 0 0 0 .834 3.502 6.257 6.257 0 0 0 2.418 2.627c1.063.647 2.272.959 3.606.959a7.14 7.14 0 0 0 3.481-.875c1.086-.563 1.92-1.439 2.524-2.564Zm-6.003 1.625c-1.334 0-2.46-.479-3.356-1.397-.875-.938-1.334-2.23-1.334-3.856 0-2.022.479-3.502 1.396-4.357.917-.854 2.043-1.292 3.315-1.292.917 0 1.73.229 2.46.667.709.438 1.271 1.084 1.647 1.897.375.813.563 1.793.563 2.897 0 1.73-.438 3.085-1.313 4.023-.877.939-2.023 1.418-3.378 1.418Z"/><path fill="url(#o)" d="M54.019 149.513h-2.022v14.071h2.022v-14.071Z"/><path fill="url(#p)" d="m48.078 163.583 3.169-8.943v-5.003l-3.356 9.568a52.19 52.19 0 0 0-.626 1.855l-.563-1.668-3.356-9.88h-.229v5.107l3.106 8.964h1.855Z"/><path fill="url(#q)" d="M42.367 149.513h-2.043v14.071h2.043v-14.071Z"/><path fill="url(#r)" d="M71.133 156.704c.792-.834 1.188-1.855 1.188-3.064 0-.709-.146-1.355-.438-1.939-.313-.584-.688-1.063-1.188-1.376-.479-.333-1.084-.563-1.772-.667-.5-.104-1.23-.146-2.168-.146H64.17v1.876h2.731c.834 0 1.397.042 1.709.125a1.9 1.9 0 0 1 1.105.771c.292.396.417.854.417 1.417 0 .75-.229 1.334-.709 1.751-.48.417-1.313.625-2.481.625H64.17v1.897h2.752c2.002.002 3.44-.436 4.211-1.27Z"/><path fill="url(#s)" d="M63.42 149.513h-2.105v14.071h2.105v-14.071Z"/><path fill="url(#t)" d="M87.288 149.513H85.12l-5.503 14.07h2.23l.625-1.647h-.021l1.584-4.273.334-.875 1.167-3.106h.021c.25-.688.459-1.396.625-2.084.209.667.5 1.48.855 2.397l1.417 3.669h-3.606l-.646 1.73h4.919l1.647 4.19h2.397l-5.877-14.071Z"/><path fill="url(#u)" d="M109.51 160.018v3.565h2.084v-14.07h-2.043v10.568l-.041-.063Z"/><path fill="url(#v)" d="M102.213 149.513h-1.959v14.071h1.959v-14.071Z"/><path fill="url(#w)" d="m108.759 158.914-5.795-8.484v3.585l5.795 8.505v-3.606Z"/><path fill="url(#x)" d="m129.813 149.513-2.773 4.127c-.542.813-1.021 1.584-1.438 2.251v-.021l-1.167 1.772v5.941h2.126v-5.941l5.732-8.129h-2.48Z"/><path fill="url(#y)" d="m124.289 153.744-2.814-4.231h-2.585l5.086 7.462 1.189-1.834-.876-1.397Z"/><path fill="url(#z)" d="M2.244 175.013v-4.412H3.64v-.689H.071v.689h1.396v4.412h.777Z"/><path fill="url(#A)" d="M9.926 169.913h-.652l-1.852 5.103h.816l.398-1.146h1.934l.391 1.146h.816l-1.851-5.103Zm-1.07 3.272.741-2.229h.014l.734 2.229H8.856Z"/><path fill="url(#B)" d="M17.352 171.014a.98.98 0 0 1 .791-.372c.247.005.458.076.63.214.166.144.28.32.343.525h.819a1.92 1.92 0 0 0-.588-1.074c-.31-.287-.711-.433-1.204-.437-.401.005-.736.101-1.004.287a1.76 1.76 0 0 0-.595.63 1.407 1.407 0 0 0-.171.486c-.035.201-.053.597-.053 1.19 0 .583.018.977.053 1.183.018.109.042.201.07.273.031.07.064.143.102.22.124.236.322.443.595.623.268.187.603.284 1.004.294.52-.009.952-.185 1.295-.528.34-.345.515-.773.524-1.284v-1.039h-1.812v.731h1.039v.266c-.005.32-.105.577-.301.773a.987.987 0 0 1-.746.308.908.908 0 0 1-.469-.115.905.905 0 0 1-.322-.256.853.853 0 0 1-.2-.43c-.037-.177-.056-.517-.056-1.018 0-.502.019-.843.056-1.025a.852.852 0 0 1 .2-.425Z"/><path fill="url(#C)" d="M25.165 169.912v5.101h3.257v-.731h-2.484v-4.37h-.773Z"/><path fill="url(#D)" d="M34.223 169.912h-.773v5.102h.773v-5.102Z"/><path fill="url(#E)" d="M40.371 171.388h.014l2.306 3.625h.731v-5.101h-.773v3.625h-.014l-2.31-3.625h-.728v5.101h.774v-3.625Z"/><path fill="url(#F)" d="M52.057 170.643v-.731h-3.258v5.101h3.258v-.731h-2.484v-1.498h2.12v-.686h-2.12v-1.455h2.484Z"/><path fill="url(#G)" d="M63.05 173.918c.03.07.064.143.101.22.124.236.322.443.595.623.268.187.603.284 1.004.294.52-.009.952-.185 1.295-.528.341-.345.515-.773.524-1.284v-1.039h-1.812v.731h1.039v.266c-.005.32-.105.577-.3.773a.989.989 0 0 1-.747.308.908.908 0 0 1-.469-.115.906.906 0 0 1-.322-.256.853.853 0 0 1-.2-.43c-.037-.177-.056-.517-.056-1.018 0-.502.02-.843.056-1.025a.84.84 0 0 1 .2-.423.98.98 0 0 1 .791-.372c.247.005.458.076.63.214.165.144.28.32.343.525h.819a1.92 1.92 0 0 0-.588-1.074c-.31-.287-.711-.433-1.204-.437-.401.005-.736.101-1.004.287a1.76 1.76 0 0 0-.595.63 1.407 1.407 0 0 0-.171.486c-.035.201-.053.597-.053 1.19 0 .583.018.977.053 1.183.019.108.043.199.071.271Z"/><path fill="url(#H)" d="M71.72 173.918c.03.07.064.143.101.22.124.236.322.443.595.623.268.187.603.284 1.004.294.406-.009.744-.107 1.015-.294.268-.18.462-.387.581-.623a1.19 1.19 0 0 0 .179-.493c.03-.205.045-.599.045-1.183 0-.593-.015-.989-.045-1.19a1.16 1.16 0 0 0-.179-.486 1.705 1.705 0 0 0-.581-.63c-.271-.186-.609-.282-1.015-.287-.401.005-.736.101-1.004.287a1.76 1.76 0 0 0-.595.63 1.407 1.407 0 0 0-.171.486c-.035.201-.053.597-.053 1.19 0 .583.017.977.053 1.183.018.11.042.201.07.273Zm.71-2.481a.84.84 0 0 1 .2-.423.98.98 0 0 1 .791-.372c.184.005.344.041.479.109.128.07.231.157.308.263.1.11.169.251.206.423.035.182.052.523.052 1.025 0 .501-.017.841-.052 1.018a.893.893 0 0 1-.206.43.865.865 0 0 1-.308.256.952.952 0 0 1-.479.115.908.908 0 0 1-.469-.115.906.906 0 0 1-.322-.256.853.853 0 0 1-.2-.43c-.037-.177-.056-.517-.056-1.018s.02-.843.056-1.025Z"/><path fill="url(#I)" d="M83.7 170.643v-.731h-3.258v5.101H83.7v-.731h-2.484v-1.498h2.12v-.686h-2.12v-1.455H83.7Z"/><path fill="url(#J)" d="M90.239 174.282c-.56-.005-1.043-.174-1.449-.507l-.507.581c.544.467 1.193.7 1.95.7 1.168-.014 1.765-.508 1.791-1.483 0-.362-.113-.679-.339-.952-.229-.278-.582-.449-1.06-.514-.243-.03-.434-.057-.574-.08-.252-.046-.435-.131-.549-.252a.565.565 0 0 1-.172-.399c.005-.245.09-.429.256-.553a.963.963 0 0 1 .595-.179c.46.009.881.14 1.263.392l.431-.637c-.469-.338-1.021-.514-1.655-.529-.527.005-.934.142-1.221.413-.296.273-.444.632-.444 1.078 0 .371.118.686.353.945.229.252.562.414 1.001.486l.675.094c.448.077.669.305.664.686-.01.464-.346.701-1.009.71Z"/><path fill="url(#K)" d="M106.723 175.013v-5.101h-.774v2.186h-2.019v-2.186h-.773v5.101h.773v-2.229h2.019v2.229h.774Z"/><path fill="url(#L)" d="M115.358 170.643v-.731H112.1v5.101h3.258v-.731h-2.485v-1.498h2.121v-.686h-2.121v-1.455h2.485Z"/><path fill="url(#M)" d="M123.923 171.336c-.014-.471-.183-.834-.507-1.088-.269-.224-.615-.336-1.039-.336h-1.991v5.102h.773v-2.18h.987l1.053 2.18h.92l-1.183-2.264c.649-.25.977-.722.987-1.414Zm-.945.559c-.145.163-.362.247-.651.252h-1.169V170.6h1.211c.247 0 .436.053.567.157.166.119.251.311.256.577a.793.793 0 0 1-.214.561Z"/><path fill="url(#N)" d="M132.313 170.643v-.731h-3.258v5.101h3.258v-.731h-2.485v-1.498h2.121v-.686h-2.121v-1.455h2.485Z"/><defs><linearGradient id="a" x1="77.191" x2="101.35" y1="54.042" y2="54.042" gradientUnits="userSpaceOnUse"><stop stop-color="#fff"/><stop offset=".328" stop-color="#fff"/><stop offset=".524" stop-color="#fff"/><stop offset=".73" stop-color="#fff"/><stop offset="1" stop-color="#fff"/></linearGradient><linearGradient id="b" x1="41.961" x2="66.121" y1="89.271" y2="89.271" gradientUnits="userSpaceOnUse"><stop stop-color="#fff"/><stop offset=".328" stop-color="#fff"/><stop offset=".524" stop-color="#fff"/><stop offset=".73" stop-color="#fff"/><stop offset="1" stop-color="#fff"/></linearGradient><linearGradient id="c" x1="66.121" x2="90.28" y1="42.971" y2="42.971" gradientUnits="userSpaceOnUse"><stop stop-color="#fff"/><stop offset=".328" stop-color="#fff"/><stop offset=".524" stop-color="#fff"/><stop offset=".73" stop-color="#fff"/><stop offset="1" stop-color="#fff"/></linearGradient><linearGradient id="d" x1="30.891" x2="55.05" y1="78.201" y2="78.201" gradientUnits="userSpaceOnUse"><stop stop-color="#fff"/><stop offset=".328" stop-color="#fff"/><stop offset=".524" stop-color="#fff"/><stop offset=".73" stop-color="#fff"/><stop offset="1" stop-color="#fff"/></linearGradient><linearGradient id="e" x1="30.891" x2="55.05" y1="54.042" y2="54.042" gradientUnits="userSpaceOnUse"><stop stop-color="#fff"/><stop offset=".328" stop-color="#fff"/><stop offset=".524" stop-color="#fff"/><stop offset=".73" stop-color="#fff"/><stop offset="1" stop-color="#fff"/></linearGradient><linearGradient id="f" x1="41.961" x2="66.121" y1="42.971" y2="42.971" gradientUnits="userSpaceOnUse"><stop stop-color="#fff"/><stop offset=".328" stop-color="#fff"/><stop offset=".524" stop-color="#fff"/><stop offset=".73" stop-color="#fff"/><stop offset="1" stop-color="#fff"/></linearGradient><linearGradient id="g" x1="77.191" x2="101.35" y1="78.201" y2="78.201" gradientUnits="userSpaceOnUse"><stop stop-color="#fff"/><stop offset=".328" stop-color="#fff"/><stop offset=".524" stop-color="#fff"/><stop offset=".73" stop-color="#fff"/><stop offset="1" stop-color="#fff"/></linearGradient><linearGradient id="h" x1="66.121" x2="90.28" y1="89.271" y2="89.271" gradientUnits="userSpaceOnUse"><stop stop-color="#fff"/><stop offset=".328" stop-color="#fff"/><stop offset=".524" stop-color="#fff"/><stop offset=".73" stop-color="#fff"/><stop offset="1" stop-color="#fff"/></linearGradient><linearGradient id="i" x1="41.961" x2="90.28" y1="116.797" y2="116.797" gradientUnits="userSpaceOnUse"><stop stop-color="#fff"/><stop offset=".328" stop-color="#fff"/><stop offset=".524" stop-color="#fff"/><stop offset=".73" stop-color="#fff"/><stop offset="1" stop-color="#fff"/></linearGradient><linearGradient id="j" x1="0" x2="30.891" y1="66.121" y2="66.121" gradientUnits="userSpaceOnUse"><stop stop-color="#fff"/><stop offset=".328" stop-color="#fff"/><stop offset=".524" stop-color="#fff"/><stop offset=".73" stop-color="#fff"/><stop offset="1" stop-color="#fff"/></linearGradient><linearGradient id="k" x1="101.35" x2="132.241" y1="66.121" y2="66.121" gradientUnits="userSpaceOnUse"><stop stop-color="#fff"/><stop offset=".328" stop-color="#fff"/><stop offset=".524" stop-color="#fff"/><stop offset=".73" stop-color="#fff"/><stop offset="1" stop-color="#fff"/></linearGradient><linearGradient id="l" x1="41.961" x2="90.28" y1="15.446" y2="15.446" gradientUnits="userSpaceOnUse"><stop stop-color="#fff"/><stop offset=".328" stop-color="#fff"/><stop offset=".524" stop-color="#fff"/><stop offset=".73" stop-color="#fff"/><stop offset="1" stop-color="#fff"/></linearGradient><linearGradient id="m" x1=".071" x2="12.807" y1="156.319" y2="156.319" gradientUnits="userSpaceOnUse"><stop stop-color="#fff"/><stop offset=".328" stop-color="#fff"/><stop offset=".524" stop-color="#fff"/><stop offset=".73" stop-color="#fff"/><stop offset="1" stop-color="#fff"/></linearGradient><linearGradient id="n" x1="19.291" x2="33.028" y1="156.308" y2="156.308" gradientUnits="userSpaceOnUse"><stop stop-color="#fff"/><stop offset=".328" stop-color="#fff"/><stop offset=".524" stop-color="#fff"/><stop offset=".73" stop-color="#fff"/><stop offset="1" stop-color="#fff"/></linearGradient><linearGradient id="o" x1="51.997" x2="54.019" y1="156.548" y2="156.548" gradientUnits="userSpaceOnUse"><stop stop-color="#fff"/><stop offset=".328" stop-color="#fff"/><stop offset=".524" stop-color="#fff"/><stop offset=".73" stop-color="#fff"/><stop offset="1" stop-color="#fff"/></linearGradient><linearGradient id="p" x1="43.117" x2="51.247" y1="156.548" y2="156.548" gradientUnits="userSpaceOnUse"><stop stop-color="#fff"/><stop offset=".328" stop-color="#fff"/><stop offset=".524" stop-color="#fff"/><stop offset=".73" stop-color="#fff"/><stop offset="1" stop-color="#fff"/></linearGradient><linearGradient id="q" x1="40.324" x2="42.367" y1="156.548" y2="156.548" gradientUnits="userSpaceOnUse"><stop stop-color="#fff"/><stop offset=".328" stop-color="#fff"/><stop offset=".524" stop-color="#fff"/><stop offset=".73" stop-color="#fff"/><stop offset="1" stop-color="#fff"/></linearGradient><linearGradient id="r" x1="64.171" x2="72.322" y1="153.744" y2="153.744" gradientUnits="userSpaceOnUse"><stop stop-color="#fff"/><stop offset=".328" stop-color="#fff"/><stop offset=".524" stop-color="#fff"/><stop offset=".73" stop-color="#fff"/><stop offset="1" stop-color="#fff"/></linearGradient><linearGradient id="s" x1="61.315" x2="63.421" y1="156.548" y2="156.548" gradientUnits="userSpaceOnUse"><stop stop-color="#fff"/><stop offset=".328" stop-color="#fff"/><stop offset=".524" stop-color="#fff"/><stop offset=".73" stop-color="#fff"/><stop offset="1" stop-color="#fff"/></linearGradient><linearGradient id="t" x1="79.618" x2="93.167" y1="156.548" y2="156.548" gradientUnits="userSpaceOnUse"><stop stop-color="#fff"/><stop offset=".328" stop-color="#fff"/><stop offset=".524" stop-color="#fff"/><stop offset=".73" stop-color="#fff"/><stop offset="1" stop-color="#fff"/></linearGradient><linearGradient id="u" x1="109.51" x2="111.594" y1="156.548" y2="156.548" gradientUnits="userSpaceOnUse"><stop stop-color="#fff"/><stop offset=".328" stop-color="#fff"/><stop offset=".524" stop-color="#fff"/><stop offset=".73" stop-color="#fff"/><stop offset="1" stop-color="#fff"/></linearGradient><linearGradient id="v" x1="100.254" x2="102.214" y1="156.548" y2="156.548" gradientUnits="userSpaceOnUse"><stop stop-color="#fff"/><stop offset=".328" stop-color="#fff"/><stop offset=".524" stop-color="#fff"/><stop offset=".73" stop-color="#fff"/><stop offset="1" stop-color="#fff"/></linearGradient><linearGradient id="w" x1="102.964" x2="108.759" y1="156.475" y2="156.475" gradientUnits="userSpaceOnUse"><stop stop-color="#fff"/><stop offset=".328" stop-color="#fff"/><stop offset=".524" stop-color="#fff"/><stop offset=".73" stop-color="#fff"/><stop offset="1" stop-color="#fff"/></linearGradient><linearGradient id="x" x1="124.435" x2="132.294" y1="156.548" y2="156.548" gradientUnits="userSpaceOnUse"><stop stop-color="#fff"/><stop offset=".328" stop-color="#fff"/><stop offset=".524" stop-color="#fff"/><stop offset=".73" stop-color="#fff"/><stop offset="1" stop-color="#fff"/></linearGradient><linearGradient id="y" x1="118.89" x2="125.165" y1="153.244" y2="153.244" gradientUnits="userSpaceOnUse"><stop stop-color="#fff"/><stop offset=".328" stop-color="#fff"/><stop offset=".524" stop-color="#fff"/><stop offset=".73" stop-color="#fff"/><stop offset="1" stop-color="#fff"/></linearGradient><linearGradient id="z" x1=".071" x2="3.64" y1="172.463" y2="172.463" gradientUnits="userSpaceOnUse"><stop stop-color="#fff"/><stop offset=".328" stop-color="#fff"/><stop offset=".524" stop-color="#fff"/><stop offset=".73" stop-color="#fff"/><stop offset="1" stop-color="#fff"/></linearGradient><linearGradient id="A" x1="7.422" x2="11.778" y1="172.465" y2="172.465" gradientUnits="userSpaceOnUse"><stop stop-color="#fff"/><stop offset=".328" stop-color="#fff"/><stop offset=".524" stop-color="#fff"/><stop offset=".73" stop-color="#fff"/><stop offset="1" stop-color="#fff"/></linearGradient><linearGradient id="B" x1="16.32" x2="19.962" y1="172.462" y2="172.462" gradientUnits="userSpaceOnUse"><stop stop-color="#fff"/><stop offset=".328" stop-color="#fff"/><stop offset=".524" stop-color="#fff"/><stop offset=".73" stop-color="#fff"/><stop offset="1" stop-color="#fff"/></linearGradient><linearGradient id="C" x1="25.165" x2="28.422" y1="172.463" y2="172.463" gradientUnits="userSpaceOnUse"><stop stop-color="#fff"/><stop offset=".328" stop-color="#fff"/><stop offset=".524" stop-color="#fff"/><stop offset=".73" stop-color="#fff"/><stop offset="1" stop-color="#fff"/></linearGradient><linearGradient id="D" x1="33.45" x2="34.223" y1="172.463" y2="172.463" gradientUnits="userSpaceOnUse"><stop stop-color="#fff"/><stop offset=".328" stop-color="#fff"/><stop offset=".524" stop-color="#fff"/><stop offset=".73" stop-color="#fff"/><stop offset="1" stop-color="#fff"/></linearGradient><linearGradient id="E" x1="39.597" x2="43.422" y1="172.463" y2="172.463" gradientUnits="userSpaceOnUse"><stop stop-color="#fff"/><stop offset=".328" stop-color="#fff"/><stop offset=".524" stop-color="#fff"/><stop offset=".73" stop-color="#fff"/><stop offset="1" stop-color="#fff"/></linearGradient><linearGradient id="F" x1="48.799" x2="52.057" y1="172.463" y2="172.463" gradientUnits="userSpaceOnUse"><stop stop-color="#fff"/><stop offset=".328" stop-color="#fff"/><stop offset=".524" stop-color="#fff"/><stop offset=".73" stop-color="#fff"/><stop offset="1" stop-color="#fff"/></linearGradient><linearGradient id="G" x1="62.927" x2="66.57" y1="172.462" y2="172.462" gradientUnits="userSpaceOnUse"><stop stop-color="#fff"/><stop offset=".328" stop-color="#fff"/><stop offset=".524" stop-color="#fff"/><stop offset=".73" stop-color="#fff"/><stop offset="1" stop-color="#fff"/></linearGradient><linearGradient id="H" x1="71.597" x2="75.24" y1="172.462" y2="172.462" gradientUnits="userSpaceOnUse"><stop stop-color="#fff"/><stop offset=".328" stop-color="#fff"/><stop offset=".524" stop-color="#fff"/><stop offset=".73" stop-color="#fff"/><stop offset="1" stop-color="#fff"/></linearGradient><linearGradient id="I" x1="80.442" x2="83.7" y1="172.463" y2="172.463" gradientUnits="userSpaceOnUse"><stop stop-color="#fff"/><stop offset=".328" stop-color="#fff"/><stop offset=".524" stop-color="#fff"/><stop offset=".73" stop-color="#fff"/><stop offset="1" stop-color="#fff"/></linearGradient><linearGradient id="J" x1="88.284" x2="92.024" y1="172.462" y2="172.462" gradientUnits="userSpaceOnUse"><stop stop-color="#fff"/><stop offset=".328" stop-color="#fff"/><stop offset=".524" stop-color="#fff"/><stop offset=".73" stop-color="#fff"/><stop offset="1" stop-color="#fff"/></linearGradient><linearGradient id="K" x1="103.157" x2="106.723" y1="172.463" y2="172.463" gradientUnits="userSpaceOnUse"><stop stop-color="#fff"/><stop offset=".328" stop-color="#fff"/><stop offset=".524" stop-color="#fff"/><stop offset=".73" stop-color="#fff"/><stop offset="1" stop-color="#fff"/></linearGradient><linearGradient id="L" x1="112.1" x2="115.358" y1="172.463" y2="172.463" gradientUnits="userSpaceOnUse"><stop stop-color="#fff"/><stop offset=".328" stop-color="#fff"/><stop offset=".524" stop-color="#fff"/><stop offset=".73" stop-color="#fff"/><stop offset="1" stop-color="#fff"/></linearGradient><linearGradient id="M" x1="120.385" x2="124.119" y1="172.463" y2="172.463" gradientUnits="userSpaceOnUse"><stop stop-color="#fff"/><stop offset=".328" stop-color="#fff"/><stop offset=".524" stop-color="#fff"/><stop offset=".73" stop-color="#fff"/><stop offset="1" stop-color="#fff"/></linearGradient><linearGradient id="N" x1="129.055" x2="132.313" y1="172.463" y2="172.463" gradientUnits="userSpaceOnUse"><stop stop-color="#fff"/><stop offset=".328" stop-color="#fff"/><stop offset=".524" stop-color="#fff"/><stop offset=".73" stop-color="#fff"/><stop offset="1" stop-color="#fff"/></linearGradient></defs></svg>