<svg xmlns="http://www.w3.org/2000/svg" width="118" height="173" fill="none"><path fill="url(#a)" d="M18.414 94.18v28.199l6.126 4.946.467-.377 17.011-13.726L18.414 94.18Zm3.43 7.173 14.712 11.869-12.016 9.695-2.696-2.177v-19.387Z"/><path fill="url(#b)" d="m45.296 114.106-1.09.885-17.478 14.096h34.949l1.091-.878 1.098-.885 35.381-28.556V70.576l-52.859 42.645-1.092.885Zm50.52-36.356v19.38l-34.104 27.525-1.096.884-.149.12H36.443l9.923-8.003 1.09-.884 1.084-.879L95.816 77.75Z"/><path fill="url(#c)" d="m25.006 91.662 17.011-13.726-23.604-19.042v28.199l6.132 4.939.461-.37Zm-3.162-6.21V66.068l14.712 11.868-12.011 9.691-2.701-2.175Z"/><path fill="url(#d)" d="m45.296 78.821-1.097.878-17.471 14.096h34.949l1.091-.878 1.09-.885 35.388-28.549V35.291L46.387 77.936l-1.091.885Zm50.52-36.356v19.379L61.697 89.37l-1.08.877-.149.12H36.441l9.901-7.988 1.115-.892 1.084-.879 47.275-38.143Z"/><path fill="url(#e)" d="m25.006 56.37 17.011-13.719-23.604-19.042v28.192l6.126 4.946.467-.377Zm-3.162-25.587 14.711 11.868-12.014 9.689-2.696-2.177-.001-19.38Z"/><path fill="url(#f)" d="m46.387 42.645-1.091.885-1.097.885-17.471 14.096h34.949l1.091-.878 1.098-.885 35.381-28.549V0l-52.86 42.645Zm49.429-16.086L61.712 54.077l-1.096.883-.149.12H36.44l9.911-7.997 1.105-.891 1.084-.879L95.816 7.172v19.387Z"/><path fill="url(#g)" d="M1.969 159.756a6.388 6.388 0 0 0 2.203 1.4c.852.33 1.789.495 2.81.495.971 0 1.886-.187 2.745-.56.859-.374 1.587-.971 2.185-1.792l-1.942-1.382c-.436.56-.905.968-1.409 1.223a3.415 3.415 0 0 1-1.559.383c-.685 0-1.304-.124-1.858-.373a4.291 4.291 0 0 1-1.428-1.027 4.58 4.58 0 0 1-.924-1.55 5.677 5.677 0 0 1-.327-1.96c0-.66.109-1.276.327-1.849a4.588 4.588 0 0 1 .924-1.503 4.24 4.24 0 0 1 1.428-1.008c.554-.243 1.173-.364 1.858-.364.461 0 .918.087 1.372.261.454.174.924.523 1.41 1.046l1.83-1.344c-.66-.759-1.372-1.298-2.138-1.615a6.452 6.452 0 0 0-2.493-.476c-1.021 0-1.957.165-2.81.495-.853.33-1.587.8-2.203 1.41a6.476 6.476 0 0 0-1.447 2.212c-.349.865-.523 1.827-.523 2.885 0 1.033.174 1.973.523 2.819.347.845.83 1.57 1.446 2.174Z"/><path fill="url(#h)" d="M18.493 159.756a6.388 6.388 0 0 0 2.203 1.4c.853.33 1.789.495 2.81.495 1.033-.013 1.979-.19 2.838-.532a6.652 6.652 0 0 0 2.222-1.428 6.465 6.465 0 0 0 1.456-2.184c.348-.846.523-1.786.523-2.819 0-1.058-.174-2.016-.523-2.875a6.434 6.434 0 0 0-1.456-2.203 6.192 6.192 0 0 0-2.222-1.391c-.859-.317-1.805-.47-2.838-.458-1.021 0-1.957.165-2.81.495-.853.33-1.587.8-2.203 1.41a6.476 6.476 0 0 0-1.447 2.212c-.349.865-.523 1.827-.523 2.885 0 1.033.174 1.973.523 2.819.348.845.83 1.57 1.447 2.174Zm.821-6.992a4.572 4.572 0 0 1 .924-1.503 4.24 4.24 0 0 1 1.428-1.008c.554-.243 1.173-.364 1.858-.364.684 0 1.307.121 1.867.364s1.039.579 1.438 1.008c.398.429.706.931.924 1.503.218.573.327 1.189.327 1.849 0 .709-.109 1.363-.327 1.96a4.612 4.612 0 0 1-.924 1.55 4.271 4.271 0 0 1-1.438 1.027 4.547 4.547 0 0 1-1.867.373c-.685 0-1.304-.124-1.858-.373a4.291 4.291 0 0 1-1.428-1.027 4.58 4.58 0 0 1-.924-1.55 5.677 5.677 0 0 1-.327-1.96c0-.66.109-1.277.327-1.849Z"/><path fill="url(#i)" d="M50.803 161.315v-13.219h-3.548l-3.566 9.261-3.529-9.261h-3.585v13.219h2.241v-10.978h.037l4.014 10.978h1.644l4.014-10.978h.037v10.978h2.241Z"/><path fill="url(#j)" d="M59.895 155.844h1.68c.697 0 1.366-.049 2.007-.149a4.831 4.831 0 0 0 1.69-.569c.485-.28.871-.675 1.158-1.186.286-.51.429-1.182.429-2.016 0-.734-.134-1.347-.401-1.839a3.207 3.207 0 0 0-1.074-1.176 4.531 4.531 0 0 0-1.559-.625 8.934 8.934 0 0 0-1.839-.187h-4.444v13.219h2.352l.001-5.472Zm0-5.732h1.68c.311 0 .635.019.971.056.336.037.641.121.915.252s.498.317.672.56c.174.243.262.569.262.98 0 .448-.097.797-.289 1.046a1.769 1.769 0 0 1-.747.56 3.2 3.2 0 0 1-.999.224c-.361.025-.71.037-1.046.037h-1.419v-3.715Z"/><path fill="url(#k)" d="M77.614 148.096h-2.035l-5.751 13.219h2.633l1.195-3.025h5.732l1.232 3.025h2.689l-5.695-13.219Zm-3.155 8.178 2.072-5.377 2.035 5.377h-4.107Z"/><path fill="url(#l)" d="M100.43 161.315v-13.219h-2.353v9.821h-.037l-6.404-9.821h-3.118v13.219h2.352v-10.138h.037l6.535 10.138h2.988Z"/><path fill="url(#m)" d="M110.344 161.315h2.352v-5.657l4.967-7.562h-2.801l-3.286 5.265-3.249-5.265h-2.95l4.967 7.562v5.657Z"/><path fill="url(#n)" d="M1.676 167.102H.016v-.82H4.26v.82H2.6v5.246h-.924v-5.246Z"/><path fill="url(#o)" d="M13.349 170.992h-2.301l-.466 1.356h-.974l2.205-6.066h.77l2.205 6.066h-.969l-.47-1.356Zm-.262-.815-.878-2.65h-.017l-.878 2.65h1.773Z"/><path fill="url(#p)" d="M23.216 169.008h2.155v1.236c-.011.607-.219 1.116-.624 1.527-.408.408-.921.617-1.539.628-.477-.011-.875-.128-1.194-.349-.324-.214-.56-.46-.707-.741a7.098 7.098 0 0 1-.121-.262 1.719 1.719 0 0 1-.083-.324c-.042-.244-.062-.713-.062-1.406 0-.704.021-1.176.062-1.415a1.66 1.66 0 0 1 .204-.578c.147-.28.383-.53.707-.749.319-.222.717-.335 1.194-.341.585.006 1.062.179 1.431.52.369.344.602.77.699 1.277h-.974a1.336 1.336 0 0 0-.408-.624 1.202 1.202 0 0 0-.749-.254 1.29 1.29 0 0 0-.558.129 1.156 1.156 0 0 0-.383.312c-.119.13-.198.298-.237.503-.044.216-.066.623-.066 1.219 0 .596.022 1 .066 1.211.039.211.118.381.237.512.097.125.225.226.383.304.155.091.341.137.558.137.358 0 .653-.122.886-.366.233-.233.352-.539.358-.919v-.316h-1.236v-.871h.001Z"/><path fill="url(#q)" d="M34.417 166.282h.919v5.196h2.954v.87h-3.873v-6.066Z"/><path fill="url(#r)" d="M45.12 166.282h.919v6.066h-.919v-6.066Z"/><path fill="url(#s)" d="M53.281 166.282h.865l2.746 4.31h.017v-4.31h.919v6.066h-.869l-2.742-4.31H54.2v4.31h-.919v-6.066Z"/><path fill="url(#t)" d="M65.074 166.282h3.873v.87h-2.954v1.731h2.521v.815h-2.521v1.781h2.954v.87h-3.873v-6.067Z"/><path fill="url(#u)" d="M81.775 169.698h-2.4v2.65h-.919v-6.066h.919v2.6h2.4v-2.6h.919v6.066h-.919v-2.65Z"/><path fill="url(#v)" d="M91.748 166.282h3.873v.87h-2.954v1.731h2.521v.815h-2.521v1.781h2.954v.87h-3.873v-6.067Z"/><path fill="url(#w)" d="M102.451 166.282h2.367c.505 0 .917.133 1.236.4.385.302.587.734.603 1.294-.011.824-.402 1.384-1.173 1.681l1.406 2.692h-1.094l-1.252-2.592h-1.173v2.592h-.919l-.001-6.067Zm.92 2.659h1.39c.344-.006.602-.106.774-.3a.937.937 0 0 0 .254-.666c-.006-.316-.107-.545-.304-.686-.155-.125-.38-.187-.674-.187h-1.439v1.839h-.001Z"/><path fill="url(#x)" d="M113.612 166.282h3.873v.87h-2.954v1.731h2.521v.815h-2.521v1.781h2.954v.87h-3.873v-6.067Z"/><defs><linearGradient id="a" x1="18.414" x2="42.017" y1="110.752" y2="110.752" gradientUnits="userSpaceOnUse"><stop stop-color="#fff"/><stop offset=".328" stop-color="#fff"/><stop offset=".524" stop-color="#fff"/><stop offset=".73" stop-color="#fff"/><stop offset="1" stop-color="#fff"/></linearGradient><linearGradient id="b" x1="26.728" x2="99.246" y1="99.832" y2="99.832" gradientUnits="userSpaceOnUse"><stop stop-color="#fff"/><stop offset=".328" stop-color="#fff"/><stop offset=".524" stop-color="#fff"/><stop offset=".73" stop-color="#fff"/><stop offset="1" stop-color="#fff"/></linearGradient><linearGradient id="c" x1="18.414" x2="42.017" y1="75.464" y2="75.464" gradientUnits="userSpaceOnUse"><stop stop-color="#fff"/><stop offset=".328" stop-color="#fff"/><stop offset=".524" stop-color="#fff"/><stop offset=".73" stop-color="#fff"/><stop offset="1" stop-color="#fff"/></linearGradient><linearGradient id="d" x1="26.728" x2="99.246" y1="64.543" y2="64.543" gradientUnits="userSpaceOnUse"><stop stop-color="#fff"/><stop offset=".328" stop-color="#fff"/><stop offset=".524" stop-color="#fff"/><stop offset=".73" stop-color="#fff"/><stop offset="1" stop-color="#fff"/></linearGradient><linearGradient id="e" x1="18.414" x2="42.017" y1="40.179" y2="40.179" gradientUnits="userSpaceOnUse"><stop stop-color="#fff"/><stop offset=".328" stop-color="#fff"/><stop offset=".524" stop-color="#fff"/><stop offset=".73" stop-color="#fff"/><stop offset="1" stop-color="#fff"/></linearGradient><linearGradient id="f" x1="26.728" x2="99.246" y1="29.255" y2="29.255" gradientUnits="userSpaceOnUse"><stop stop-color="#fff"/><stop offset=".328" stop-color="#fff"/><stop offset=".524" stop-color="#fff"/><stop offset=".73" stop-color="#fff"/><stop offset="1" stop-color="#fff"/></linearGradient><linearGradient id="g" x1="5.955" x2="5.955" y1="162.4" y2="37.178" gradientUnits="userSpaceOnUse"><stop stop-color="#fff"/><stop offset=".328" stop-color="#fff"/><stop offset=".524" stop-color="#fff"/><stop offset=".73" stop-color="#fff"/><stop offset="1" stop-color="#fff"/></linearGradient><linearGradient id="h" x1="23.534" x2="23.534" y1="177.803" y2="63.468" gradientUnits="userSpaceOnUse"><stop stop-color="#fff"/><stop offset=".328" stop-color="#fff"/><stop offset=".524" stop-color="#fff"/><stop offset=".73" stop-color="#fff"/><stop offset="1" stop-color="#fff"/></linearGradient><linearGradient id="i" x1="43.689" x2="43.689" y1="186.93" y2="99.131" gradientUnits="userSpaceOnUse"><stop stop-color="#fff"/><stop offset=".328" stop-color="#fff"/><stop offset=".524" stop-color="#fff"/><stop offset=".73" stop-color="#fff"/><stop offset="1" stop-color="#fff"/></linearGradient><linearGradient id="j" x1="62.201" x2="62.201" y1="221.14" y2="92.046" gradientUnits="userSpaceOnUse"><stop stop-color="#fff"/><stop offset=".328" stop-color="#fff"/><stop offset=".524" stop-color="#fff"/><stop offset=".73" stop-color="#fff"/><stop offset="1" stop-color="#fff"/></linearGradient><linearGradient id="k" x1="76.569" x2="76.569" y1="228.865" y2="109.098" gradientUnits="userSpaceOnUse"><stop stop-color="#fff"/><stop offset=".328" stop-color="#fff"/><stop offset=".524" stop-color="#fff"/><stop offset=".73" stop-color="#fff"/><stop offset="1" stop-color="#fff"/></linearGradient><linearGradient id="l" x1="94.474" x2="94.474" y1="233.337" y2="132.892" gradientUnits="userSpaceOnUse"><stop stop-color="#fff"/><stop offset=".328" stop-color="#fff"/><stop offset=".524" stop-color="#fff"/><stop offset=".73" stop-color="#fff"/><stop offset="1" stop-color="#fff"/></linearGradient><linearGradient id="m" x1="111.52" x2="111.52" y1="278.163" y2="146.747" gradientUnits="userSpaceOnUse"><stop stop-color="#fff"/><stop offset=".328" stop-color="#fff"/><stop offset=".524" stop-color="#fff"/><stop offset=".73" stop-color="#fff"/><stop offset="1" stop-color="#fff"/></linearGradient><linearGradient id="n" x1="2.138" x2="2.138" y1="168.646" y2="4.067" gradientUnits="userSpaceOnUse"><stop stop-color="#fff"/><stop offset=".328" stop-color="#fff"/><stop offset=".524" stop-color="#fff"/><stop offset=".73" stop-color="#fff"/><stop offset="1" stop-color="#fff"/></linearGradient><linearGradient id="o" x1="12.198" x2="12.198" y1="178.43" y2="35.396" gradientUnits="userSpaceOnUse"><stop stop-color="#fff"/><stop offset=".328" stop-color="#fff"/><stop offset=".524" stop-color="#fff"/><stop offset=".73" stop-color="#fff"/><stop offset="1" stop-color="#fff"/></linearGradient><linearGradient id="p" x1="23.205" x2="23.205" y1="193.075" y2="46.057" gradientUnits="userSpaceOnUse"><stop stop-color="#fff"/><stop offset=".328" stop-color="#fff"/><stop offset=".524" stop-color="#fff"/><stop offset=".73" stop-color="#fff"/><stop offset="1" stop-color="#fff"/></linearGradient><linearGradient id="q" x1="36.354" x2="36.354" y1="216.232" y2="37.58" gradientUnits="userSpaceOnUse"><stop stop-color="#fff"/><stop offset=".328" stop-color="#fff"/><stop offset=".524" stop-color="#fff"/><stop offset=".73" stop-color="#fff"/><stop offset="1" stop-color="#fff"/></linearGradient><linearGradient id="r" x1="45.58" x2="45.58" y1="259.626" y2="-2.256" gradientUnits="userSpaceOnUse"><stop stop-color="#fff"/><stop offset=".328" stop-color="#fff"/><stop offset=".524" stop-color="#fff"/><stop offset=".73" stop-color="#fff"/><stop offset="1" stop-color="#fff"/></linearGradient><linearGradient id="s" x1="55.555" x2="55.555" y1="218.256" y2="103.513" gradientUnits="userSpaceOnUse"><stop stop-color="#fff"/><stop offset=".328" stop-color="#fff"/><stop offset=".524" stop-color="#fff"/><stop offset=".73" stop-color="#fff"/><stop offset="1" stop-color="#fff"/></linearGradient><linearGradient id="t" x1="67.011" x2="67.011" y1="235.976" y2="107.862" gradientUnits="userSpaceOnUse"><stop stop-color="#fff"/><stop offset=".328" stop-color="#fff"/><stop offset=".524" stop-color="#fff"/><stop offset=".73" stop-color="#fff"/><stop offset="1" stop-color="#fff"/></linearGradient><linearGradient id="u" x1="80.575" x2="80.575" y1="245.388" y2="124.901" gradientUnits="userSpaceOnUse"><stop stop-color="#fff"/><stop offset=".328" stop-color="#fff"/><stop offset=".524" stop-color="#fff"/><stop offset=".73" stop-color="#fff"/><stop offset="1" stop-color="#fff"/></linearGradient><linearGradient id="v" x1="93.685" x2="93.685" y1="263.955" y2="135.841" gradientUnits="userSpaceOnUse"><stop stop-color="#fff"/><stop offset=".328" stop-color="#fff"/><stop offset=".524" stop-color="#fff"/><stop offset=".73" stop-color="#fff"/><stop offset="1" stop-color="#fff"/></linearGradient><linearGradient id="w" x1="104.671" x2="104.671" y1="277.272" y2="146.554" gradientUnits="userSpaceOnUse"><stop stop-color="#fff"/><stop offset=".328" stop-color="#fff"/><stop offset=".524" stop-color="#fff"/><stop offset=".73" stop-color="#fff"/><stop offset="1" stop-color="#fff"/></linearGradient><linearGradient id="x" x1="115.548" x2="115.548" y1="286.889" y2="158.775" gradientUnits="userSpaceOnUse"><stop stop-color="#fff"/><stop offset=".328" stop-color="#fff"/><stop offset=".524" stop-color="#fff"/><stop offset=".73" stop-color="#fff"/><stop offset="1" stop-color="#fff"/></linearGradient></defs></svg>