<svg xmlns="http://www.w3.org/2000/svg" width="145" height="165" fill="none"><path fill="url(#a)" d="M123.641 12.695C115.455 4.51 104.569 0 92.991 0 81.415-.002 70.53 4.509 62.342 12.697c-6.398 6.398-10.551 14.445-12.059 23.187a40.819 40.819 0 0 0-.374 2.667 43.24 43.24 0 0 0-.209 2.659 43.315 43.315 0 0 0-.053 2.136l.002 5.893v2.652l-.002 2.654-.002 32.147 32.151-.002H87.1c.045-.722.067-1.451.069-2.186V78.68l-2.646-.002H57.658l.002-24.217v-5.289l-.002-5.826c.002-.735.025-1.464.069-2.186.054-.892.142-1.773.264-2.646.122-.896.279-1.779.47-2.647 1.455-6.748 4.847-12.781 9.559-17.492 6.398-6.398 15.23-10.361 24.972-10.363 19.482.002 35.332 15.852 35.334 35.333-.002 9.742-3.965 18.575-10.363 24.973-4.711 4.711-10.744 8.103-17.492 9.559v.733l-.002 5.893c0 .52-.007 1.04-.022 1.552 8.741-1.507 16.794-5.659 23.194-12.059 8.188-8.188 12.697-19.074 12.697-30.651-.001-11.575-4.51-22.462-12.697-30.65Z"/><path fill="url(#b)" d="M57.66 49.172h5.289l24.217-.002.002 24.221v11.113a36.756 36.756 0 0 1-.069 2.186c-.054.892-.14 1.775-.264 2.646-.12.894-.275 1.775-.466 2.643a35.31 35.31 0 0 1-9.562 17.496c-6.398 6.398-15.231 10.361-24.973 10.363-19.482-.002-35.332-15.852-35.334-35.333.002-9.742 3.965-18.575 10.363-24.973a35.293 35.293 0 0 1 17.494-9.56v-6.624c0-.524.007-1.044.024-1.554-8.741 1.504-16.794 5.659-23.196 12.061-8.188 8.188-12.699 19.073-12.697 30.651 0 11.577 4.509 22.463 12.695 30.649 8.188 8.187 19.074 12.697 30.65 12.697 11.577 0 22.463-4.509 30.65-12.697 7.682-7.681 12.126-17.739 12.643-28.513.017-.346.03-.692.039-1.038.004-.187.008-.374.009-.563.002-.178.004-.355.004-.535l-.002-.002v-5.891l.002-37.455-32.15.002-2.65.002h-2.652a36.756 36.756 0 0 0-.069 2.186l.003 5.824Z"/><path fill="url(#c)" d="M9.275 149.08a3.962 3.962 0 0 1-2.68 1.044 3.951 3.951 0 0 1-3.968-3.95c0-2.175 1.775-3.95 3.968-3.95 1.027 0 1.984.4 2.68 1.061l1.862-1.879a6.557 6.557 0 0 0-4.542-1.827A6.602 6.602 0 0 0 0 146.174a6.602 6.602 0 0 0 6.595 6.595 6.56 6.56 0 0 0 4.542-1.827l-1.862-1.862Z"/><path fill="url(#d)" d="M35.115 146.174a6.602 6.602 0 0 0-6.595-6.595 6.603 6.603 0 0 0-6.596 6.595 6.603 6.603 0 0 0 6.596 6.595 6.602 6.602 0 0 0 6.595-6.595Zm-6.595 3.968a3.966 3.966 0 0 1-3.968-3.968c0-2.175 1.775-3.95 3.968-3.95a3.958 3.958 0 0 1 0 7.918Z"/><path fill="url(#e)" d="M60.155 152.769v-13.19h-2.837l-3.845 9.64-3.864-9.64h-2.836v13.19H49.4v-6.595l2.645 6.595h2.837l2.645-6.595v6.595h2.628Z"/><path fill="url(#f)" d="M75.502 139.579h-3.689v13.19h2.628v-5.273h1.079c2.175 0 3.932-1.775 3.932-3.95a3.951 3.951 0 0 0-3.95-3.967Zm0 5.272H74.44v-2.628h1.062c.731 0 1.322.592 1.322 1.323 0 .714-.591 1.305-1.322 1.305Z"/><path fill="url(#g)" d="M96.94 139.579h-2.802l-4.768 13.19h2.801l1.34-3.689h4.054l1.34 3.689h2.801l-4.766-13.19Zm-2.472 6.856 1.062-2.976 1.079 2.976h-2.141Z"/><path fill="url(#h)" d="m121.37 148.384-5.272-8.805h-3.08v13.19h2.627v-8.788l5.29 8.788h3.063v-13.19h-2.628v8.805Z"/><path fill="url(#i)" d="M141.381 152.769v-6.282l3.446-6.908h-2.941l-1.81 3.654-1.827-3.654h-2.941l3.446 6.908v6.282h2.627Z"/><path fill="url(#j)" d="m10.063 158.419-2.032 5.589h.897l.429-1.25h2.12l.433 1.25h.893l-2.032-5.589h-.708Zm-.461 3.588.809-2.442h.015l.809 2.442H9.602Z"/><path fill="url(#k)" d="M18.909 159.627c.089-.115.207-.211.353-.288a1.17 1.17 0 0 1 .514-.119c.271.005.5.083.69.234.18.159.306.35.375.575h.897a2.105 2.105 0 0 0-.644-1.177c-.34-.315-.779-.474-1.319-.479-.44.005-.806.11-1.1.315-.299.202-.517.432-.652.69a1.548 1.548 0 0 0-.188.533c-.039.22-.058.654-.058 1.303 0 .639.019 1.071.058 1.296.02.12.046.22.077.299a5.4 5.4 0 0 0 .11.241c.136.258.354.486.653.682.294.205.66.312 1.1.322.57-.01 1.042-.203 1.419-.579.373-.378.565-.847.575-1.407v-1.138h-1.986v.801h1.138v.291c-.005.35-.115.632-.329.847a1.08 1.08 0 0 1-.817.337.997.997 0 0 1-.514-.126 1 1 0 0 1-.353-.28.93.93 0 0 1-.219-.472c-.041-.194-.061-.566-.061-1.115 0-.55.021-.924.061-1.123a.937.937 0 0 1 .22-.463Z"/><path fill="url(#l)" d="M27.468 158.419v5.589h3.568v-.801h-2.721v-4.788h-.847Z"/><path fill="url(#m)" d="M37.391 158.419h-.847v5.589h.847v-5.589Z"/><path fill="url(#n)" d="M46.621 162.39h-.015l-2.53-3.971h-.798v5.589h.848v-3.971h.015l2.526 3.971h.802v-5.589h-.848v3.971Z"/><path fill="url(#o)" d="M56.928 159.221v-.802h-3.57v5.589h3.57v-.801h-2.722v-1.64h2.323v-.752h-2.323v-1.594h2.722Z"/><path fill="url(#p)" d="M69.734 158.688c-.3.202-.516.432-.652.69a1.548 1.548 0 0 0-.188.533c-.039.22-.058.654-.058 1.303 0 .639.019 1.071.058 1.296.02.12.046.22.077.299.033.077.07.157.111.241.136.258.353.486.652.682.294.205.66.312 1.1.322.57-.01 1.042-.203 1.419-.579.373-.378.564-.847.575-1.407v-1.138h-1.986v.801h1.138v.291c-.005.35-.115.632-.329.847a1.08 1.08 0 0 1-.817.337.997.997 0 0 1-.514-.126 1 1 0 0 1-.353-.28.93.93 0 0 1-.219-.472c-.041-.194-.061-.566-.061-1.115 0-.55.021-.924.061-1.123a.927.927 0 0 1 .219-.464 1.078 1.078 0 0 1 .867-.407c.271.005.501.083.69.234.181.159.307.35.375.575h.897a2.105 2.105 0 0 0-.644-1.177c-.34-.315-.78-.474-1.32-.479-.438.007-.804.111-1.098.316Z"/><path fill="url(#q)" d="M78.58 159.378a1.548 1.548 0 0 0-.188.533c-.039.22-.058.654-.058 1.303 0 .639.019 1.071.058 1.296.02.12.046.22.077.299.033.077.07.157.111.241.136.258.353.486.652.682.294.205.66.312 1.1.322.445-.01.815-.118 1.112-.322.294-.197.506-.424.636-.682.095-.135.16-.316.196-.541.033-.225.05-.657.05-1.296 0-.649-.017-1.083-.05-1.303a1.277 1.277 0 0 0-.196-.533c-.13-.258-.342-.488-.636-.69-.296-.205-.667-.309-1.112-.315-.44.005-.806.11-1.1.315-.299.203-.516.433-.652.691Zm.667.713a.927.927 0 0 1 .219-.464c.089-.115.207-.211.353-.288a1.17 1.17 0 0 1 .514-.119c.202.005.377.045.525.119.14.077.253.172.337.288.11.12.185.275.226.464.039.199.057.573.057 1.123s-.019.921-.057 1.115a.998.998 0 0 1-.226.472.941.941 0 0 1-.337.28 1.047 1.047 0 0 1-.525.126.997.997 0 0 1-.514-.126 1 1 0 0 1-.353-.28.93.93 0 0 1-.22-.472c-.04-.194-.06-.566-.06-1.115 0-.55.02-.924.06-1.123Z"/><path fill="url(#r)" d="M88.025 164.008h3.568v-.801h-2.721v-1.64h2.323v-.752h-2.323v-1.594h2.721v-.802h-3.568v5.589Z"/><path fill="url(#s)" d="M98.757 163.207c-.613-.005-1.142-.19-1.587-.556l-.556.636c.596.511 1.307.767 2.135.767 1.281-.015 1.935-.557 1.963-1.625 0-.396-.124-.744-.372-1.043-.25-.304-.638-.492-1.161-.563a17.012 17.012 0 0 1-.629-.089c-.276-.051-.477-.143-.602-.276a.617.617 0 0 1-.188-.437c.005-.269.098-.47.28-.606.174-.13.391-.195.651-.195.504.01.965.153 1.384.429l.472-.698c-.514-.37-1.118-.563-1.813-.579-.577.005-1.023.156-1.338.453-.325.299-.487.692-.487 1.181 0 .406.129.751.387 1.035.25.276.616.453 1.096.533.268.038.515.073.74.103.491.084.733.335.728.751-.009.51-.377.769-1.103.779Z"/><path fill="url(#t)" d="M112.908 164.008h.848v-2.441h2.212v2.441h.847v-5.589h-.847v2.396h-2.212v-2.396h-.848v5.589Z"/><path fill="url(#u)" d="M126.275 159.221v-.802h-3.569v5.589h3.569v-.801h-2.722v-1.64h2.323v-.752h-2.323v-1.594h2.722Z"/><path fill="url(#v)" d="M135.657 159.98c-.015-.517-.201-.914-.556-1.192-.294-.245-.673-.368-1.138-.368h-2.181v5.589h.847v-2.388h1.081l1.154 2.388h1.008l-1.295-2.48c.71-.274 1.07-.79 1.08-1.549Zm-3.028.889v-1.695h1.326c.271 0 .478.058.621.173.181.13.275.341.28.633a.86.86 0 0 1-.234.613c-.159.179-.396.271-.713.276h-1.28Z"/><path fill="url(#w)" d="M141.28 164.008h3.569v-.801h-2.722v-1.64h2.323v-.752h-2.323v-1.594h2.722v-.802h-3.569v5.589Z"/><defs><linearGradient id="a" x1="49.645" x2="136.337" y1="43.346" y2="43.346" gradientUnits="userSpaceOnUse"><stop stop-color="#fff"/><stop offset=".328" stop-color="#fff"/><stop offset=".524" stop-color="#fff"/><stop offset=".73" stop-color="#fff"/><stop offset="1" stop-color="#fff"/></linearGradient><linearGradient id="b" x1="8.489" x2="95.18" y1="84.503" y2="84.503" gradientUnits="userSpaceOnUse"><stop stop-color="#fff"/><stop offset=".328" stop-color="#fff"/><stop offset=".524" stop-color="#fff"/><stop offset=".73" stop-color="#fff"/><stop offset="1" stop-color="#fff"/></linearGradient><linearGradient id="c" x1="0" x2="11.137" y1="146.174" y2="146.174" gradientUnits="userSpaceOnUse"><stop stop-color="#fff"/><stop offset=".328" stop-color="#fff"/><stop offset=".524" stop-color="#fff"/><stop offset=".73" stop-color="#fff"/><stop offset="1" stop-color="#fff"/></linearGradient><linearGradient id="d" x1="21.925" x2="35.115" y1="146.174" y2="146.174" gradientUnits="userSpaceOnUse"><stop stop-color="#fff"/><stop offset=".328" stop-color="#fff"/><stop offset=".524" stop-color="#fff"/><stop offset=".73" stop-color="#fff"/><stop offset="1" stop-color="#fff"/></linearGradient><linearGradient id="e" x1="46.773" x2="60.154" y1="146.174" y2="146.174" gradientUnits="userSpaceOnUse"><stop stop-color="#fff"/><stop offset=".328" stop-color="#fff"/><stop offset=".524" stop-color="#fff"/><stop offset=".73" stop-color="#fff"/><stop offset="1" stop-color="#fff"/></linearGradient><linearGradient id="f" x1="71.813" x2="79.452" y1="146.174" y2="146.174" gradientUnits="userSpaceOnUse"><stop stop-color="#fff"/><stop offset=".328" stop-color="#fff"/><stop offset=".524" stop-color="#fff"/><stop offset=".73" stop-color="#fff"/><stop offset="1" stop-color="#fff"/></linearGradient><linearGradient id="g" x1="89.37" x2="101.707" y1="146.174" y2="146.174" gradientUnits="userSpaceOnUse"><stop stop-color="#fff"/><stop offset=".328" stop-color="#fff"/><stop offset=".524" stop-color="#fff"/><stop offset=".73" stop-color="#fff"/><stop offset="1" stop-color="#fff"/></linearGradient><linearGradient id="h" x1="113.018" x2="123.998" y1="146.174" y2="146.174" gradientUnits="userSpaceOnUse"><stop stop-color="#fff"/><stop offset=".328" stop-color="#fff"/><stop offset=".524" stop-color="#fff"/><stop offset=".73" stop-color="#fff"/><stop offset="1" stop-color="#fff"/></linearGradient><linearGradient id="i" x1="135.308" x2="144.827" y1="146.174" y2="146.174" gradientUnits="userSpaceOnUse"><stop stop-color="#fff"/><stop offset=".328" stop-color="#fff"/><stop offset=".524" stop-color="#fff"/><stop offset=".73" stop-color="#fff"/><stop offset="1" stop-color="#fff"/></linearGradient><linearGradient id="j" x1="8.031" x2="12.803" y1="161.214" y2="161.214" gradientUnits="userSpaceOnUse"><stop stop-color="#fff"/><stop offset=".328" stop-color="#fff"/><stop offset=".524" stop-color="#fff"/><stop offset=".73" stop-color="#fff"/><stop offset="1" stop-color="#fff"/></linearGradient><linearGradient id="k" x1="17.778" x2="21.768" y1="161.214" y2="161.214" gradientUnits="userSpaceOnUse"><stop stop-color="#fff"/><stop offset=".328" stop-color="#fff"/><stop offset=".524" stop-color="#fff"/><stop offset=".73" stop-color="#fff"/><stop offset="1" stop-color="#fff"/></linearGradient><linearGradient id="l" x1="27.468" x2="31.036" y1="161.214" y2="161.214" gradientUnits="userSpaceOnUse"><stop stop-color="#fff"/><stop offset=".328" stop-color="#fff"/><stop offset=".524" stop-color="#fff"/><stop offset=".73" stop-color="#fff"/><stop offset="1" stop-color="#fff"/></linearGradient><linearGradient id="m" x1="36.544" x2="37.391" y1="161.214" y2="161.214" gradientUnits="userSpaceOnUse"><stop stop-color="#fff"/><stop offset=".328" stop-color="#fff"/><stop offset=".524" stop-color="#fff"/><stop offset=".73" stop-color="#fff"/><stop offset="1" stop-color="#fff"/></linearGradient><linearGradient id="n" x1="43.279" x2="47.469" y1="161.214" y2="161.214" gradientUnits="userSpaceOnUse"><stop stop-color="#fff"/><stop offset=".328" stop-color="#fff"/><stop offset=".524" stop-color="#fff"/><stop offset=".73" stop-color="#fff"/><stop offset="1" stop-color="#fff"/></linearGradient><linearGradient id="o" x1="53.359" x2="56.928" y1="161.214" y2="161.214" gradientUnits="userSpaceOnUse"><stop stop-color="#fff"/><stop offset=".328" stop-color="#fff"/><stop offset=".524" stop-color="#fff"/><stop offset=".73" stop-color="#fff"/><stop offset="1" stop-color="#fff"/></linearGradient><linearGradient id="p" x1="68.837" x2="72.827" y1="161.214" y2="161.214" gradientUnits="userSpaceOnUse"><stop stop-color="#fff"/><stop offset=".328" stop-color="#fff"/><stop offset=".524" stop-color="#fff"/><stop offset=".73" stop-color="#fff"/><stop offset="1" stop-color="#fff"/></linearGradient><linearGradient id="q" x1="78.335" x2="82.326" y1="161.214" y2="161.214" gradientUnits="userSpaceOnUse"><stop stop-color="#fff"/><stop offset=".328" stop-color="#fff"/><stop offset=".524" stop-color="#fff"/><stop offset=".73" stop-color="#fff"/><stop offset="1" stop-color="#fff"/></linearGradient><linearGradient id="r" x1="88.025" x2="91.593" y1="161.214" y2="161.214" gradientUnits="userSpaceOnUse"><stop stop-color="#fff"/><stop offset=".328" stop-color="#fff"/><stop offset=".524" stop-color="#fff"/><stop offset=".73" stop-color="#fff"/><stop offset="1" stop-color="#fff"/></linearGradient><linearGradient id="s" x1="96.614" x2="100.712" y1="161.214" y2="161.214" gradientUnits="userSpaceOnUse"><stop stop-color="#fff"/><stop offset=".328" stop-color="#fff"/><stop offset=".524" stop-color="#fff"/><stop offset=".73" stop-color="#fff"/><stop offset="1" stop-color="#fff"/></linearGradient><linearGradient id="t" x1="112.908" x2="116.815" y1="161.214" y2="161.214" gradientUnits="userSpaceOnUse"><stop stop-color="#fff"/><stop offset=".328" stop-color="#fff"/><stop offset=".524" stop-color="#fff"/><stop offset=".73" stop-color="#fff"/><stop offset="1" stop-color="#fff"/></linearGradient><linearGradient id="u" x1="122.706" x2="126.274" y1="161.214" y2="161.214" gradientUnits="userSpaceOnUse"><stop stop-color="#fff"/><stop offset=".328" stop-color="#fff"/><stop offset=".524" stop-color="#fff"/><stop offset=".73" stop-color="#fff"/><stop offset="1" stop-color="#fff"/></linearGradient><linearGradient id="v" x1="131.782" x2="135.872" y1="161.214" y2="161.214" gradientUnits="userSpaceOnUse"><stop stop-color="#fff"/><stop offset=".328" stop-color="#fff"/><stop offset=".524" stop-color="#fff"/><stop offset=".73" stop-color="#fff"/><stop offset="1" stop-color="#fff"/></linearGradient><linearGradient id="w" x1="141.28" x2="144.849" y1="161.214" y2="161.214" gradientUnits="userSpaceOnUse"><stop stop-color="#fff"/><stop offset=".328" stop-color="#fff"/><stop offset=".524" stop-color="#fff"/><stop offset=".73" stop-color="#fff"/><stop offset="1" stop-color="#fff"/></linearGradient></defs></svg>