<svg xmlns="http://www.w3.org/2000/svg" width="142" height="155" fill="none"><path fill="url(#a)" d="M42.868 38.556h2.058v33.74l9.308-9.308V29.255H21.672l-.006 66.301 9.308-9.308V38.556h11.894Z"/><path fill="url(#b)" d="M79.553 75.241h2.057v13.952H38.651l-9.307 9.308 61.568-.006V65.932h-29l-9.309 9.309h26.95Z"/><path fill="url(#c)" d="M110.866 37.041v2.057h-22.12l-9.302 9.301h40.723V7.677l-9.301 9.301v20.063Z"/><path fill="url(#d)" d="M107.921 9.301 117.223 0H71.767v45.455l9.301-9.301V9.301h26.853Z"/><path fill="url(#e)" d="M0 149.334h1.725v5.448h.959v-5.448h1.724v-.852H0v.852Z"/><path fill="url(#f)" d="M13.228 153.374h2.389l.488 1.409h1.007l-2.29-6.3h-.799l-2.29 6.3h1.011l.484-1.409Zm1.188-3.6h.017l.911 2.753h-1.84l.912-2.753Z"/><path fill="url(#g)" d="M26.649 149.843a1.19 1.19 0 0 1 .398-.324c.161-.083.354-.128.579-.134.305.006.564.094.778.263.205.179.346.395.423.648h1.011a2.383 2.383 0 0 0-.726-1.327c-.383-.354-.879-.534-1.486-.54-.496.006-.909.124-1.24.354-.337.228-.582.487-.735.778a1.763 1.763 0 0 0-.212.601c-.043.248-.065.737-.065 1.469 0 .72.022 1.207.065 1.461.023.135.052.248.086.337.037.086.079.177.125.272.153.291.398.547.735.769.331.231.745.351 1.24.363.642-.012 1.175-.229 1.599-.652.421-.426.637-.955.648-1.586v-1.283h-2.238v.903h1.283v.328c-.006.395-.13.713-.371.955a1.22 1.22 0 0 1-.92.38 1.12 1.12 0 0 1-.579-.142 1.124 1.124 0 0 1-.398-.316 1.046 1.046 0 0 1-.246-.531c-.046-.219-.069-.638-.069-1.257 0-.619.023-1.041.069-1.266.04-.213.122-.387.246-.523Z"/><path fill="url(#h)" d="M41.179 148.482v6.3h4.023v-.903h-3.068v-5.397h-.955Z"/><path fill="url(#i)" d="M55.02 148.482h-.955v6.3h.955v-6.3Z"/><path fill="url(#j)" d="m68.061 152.959-2.852-4.477h-.898v6.3h.955v-4.476h.017l2.847 4.476h.904v-6.3h-.955v4.477h-.018Z"/><path fill="url(#k)" d="M82.351 149.386v-.904h-4.022v6.3h4.022v-.903h-3.067v-1.849h2.618v-.847h-2.618v-1.797h3.067Z"/><path fill="url(#l)" d="M102.199 154.782v-6.3h-.955v2.701h-2.493v-2.701h-.955v6.3h.955v-2.752h2.493v2.752h.955Z"/><path fill="url(#m)" d="M115.517 149.386v-.904h-4.023v6.3h4.023v-.903h-3.068v-1.849h2.619v-.847h-2.619v-1.797h3.068Z"/><path fill="url(#n)" d="M127.528 151.984c.802-.309 1.207-.885 1.221-1.742-.021-.583-.226-1.029-.624-1.345-.336-.274-.761-.412-1.29-.412h-2.456v6.297h.954v-2.696h1.221l1.296 2.696h1.139l-1.461-2.798Zm-2.195-.741v-1.907h1.495c.309 0 .542.062.7.192.206.144.309.384.315.714a.998.998 0 0 1-.261.693c-.178.199-.446.302-.803.309h-1.446v-.001Z"/><path fill="url(#o)" d="M137.741 154.782h4.023v-.903h-3.068v-1.849h2.618v-.847h-2.618v-1.797h3.068v-.904h-4.023v6.3Z"/><path fill="url(#p)" d="M9.087 136.731c-.494.95-1.284 1.425-2.369 1.425-1.086 0-1.94-.339-2.563-1.018-.623-.678-.935-1.585-.935-2.72 0-1.135.312-2.042.935-2.721.623-.678 1.477-1.018 2.563-1.018 1.085 0 1.875.475 2.369 1.425h3.775c-.444-1.357-1.227-2.418-2.35-3.183-1.123-.765-2.406-1.147-3.849-1.147-1.863 0-3.44.626-4.729 1.878C.645 130.904 0 132.493 0 134.418c0 1.925.645 3.513 1.934 4.766 1.289 1.252 2.865 1.879 4.729 1.879 1.443 0 2.726-.382 3.849-1.147 1.123-.765 1.906-1.826 2.35-3.183H9.087v-.002Z"/><path fill="url(#q)" d="M34.849 134.418c0-1.925-.639-3.513-1.916-4.766-1.277-1.252-2.85-1.878-4.719-1.878-1.87 0-3.449.626-4.738 1.878-1.289 1.252-1.934 2.841-1.934 4.766 0 1.925.644 3.516 1.934 4.775 1.289 1.258 2.865 1.888 4.729 1.888 1.863 0 3.436-.629 4.719-1.888 1.284-1.259 1.925-2.85 1.925-4.775Zm-4.155 2.72c-.623.679-1.456 1.018-2.499 1.018-1.043 0-1.876-.339-2.499-1.018-.623-.678-.934-1.585-.934-2.72 0-1.135.311-2.042.934-2.721.623-.678 1.456-1.018 2.499-1.018 1.042 0 1.875.34 2.499 1.018.623.679.935 1.586.935 2.721s-.312 2.042-.935 2.72Z"/><path fill="url(#r)" d="M59.001 127.959h-3.628l-3.719 8.957-3.739-8.957h-3.627v12.992h3.165v-7.329l3.016 7.329h2.35l3.017-7.329v7.329h3.165v-12.992Z"/><path fill="url(#s)" d="M72.344 135.898h1.962c.901 0 1.681-.132 2.341-.398.66-.265 1.157-.608 1.49-1.027.629-.814.944-1.659.944-2.536 0-1.098-.42-2.036-1.258-2.813-.839-.777-2.011-1.166-3.516-1.166h-5.126v12.992h3.165v-5.052h-.002Zm0-5.533h1.962c.469 0 .845.148 1.129.444.284.296.425.675.425 1.138 0 .463-.139.836-.416 1.12-.278.284-.657.426-1.138.426h-1.962v-3.128Z"/><path fill="url(#t)" d="M95.536 127.921h-3.855l-4.514 13.033h3.368l.72-2.188h4.664l.727 2.188h3.382l-4.492-13.033Zm-3.485 8.437 1.537-4.623 1.536 4.623h-3.073Z"/><path fill="url(#u)" d="M120.61 140.951v-13.029h-3.165v8.198l-5.293-8.198h-3.164v13.029h3.164v-8.199l5.293 8.199h3.165Z"/><path fill="url(#v)" d="m135.767 133.826-2.498-5.867h-3.591l4.498 8.809v4.183h3.164v-4.183l4.498-8.809h-3.591l-2.48 5.867Z"/><defs><linearGradient id="a" x1="5.092" x2="54.527" y1="78.983" y2="29.548" gradientUnits="userSpaceOnUse"><stop stop-color="#fff"/><stop offset=".328" stop-color="#fff"/><stop offset=".524" stop-color="#fff"/><stop offset=".73" stop-color="#fff"/><stop offset="1" stop-color="#fff"/></linearGradient><linearGradient id="b" x1="44.734" x2="91.802" y1="113.891" y2="66.823" gradientUnits="userSpaceOnUse"><stop stop-color="#fff"/><stop offset=".328" stop-color="#fff"/><stop offset=".524" stop-color="#fff"/><stop offset=".73" stop-color="#fff"/><stop offset="1" stop-color="#fff"/></linearGradient><linearGradient id="c" x1="89.625" x2="130.348" y1="58.58" y2="17.858" gradientUnits="userSpaceOnUse"><stop stop-color="#fff"/><stop offset=".328" stop-color="#fff"/><stop offset=".524" stop-color="#fff"/><stop offset=".73" stop-color="#fff"/><stop offset="1" stop-color="#fff"/></linearGradient><linearGradient id="d" x1="60.403" x2="105.859" y1="34.091" y2="-11.364" gradientUnits="userSpaceOnUse"><stop stop-color="#fff"/><stop offset=".328" stop-color="#fff"/><stop offset=".524" stop-color="#fff"/><stop offset=".73" stop-color="#fff"/><stop offset="1" stop-color="#fff"/></linearGradient><linearGradient id="e" x1="2.204" x2="2.204" y1="162.113" y2="-26.374" gradientUnits="userSpaceOnUse"><stop stop-color="#fff"/><stop offset=".328" stop-color="#fff"/><stop offset=".524" stop-color="#fff"/><stop offset=".73" stop-color="#fff"/><stop offset="1" stop-color="#fff"/></linearGradient><linearGradient id="f" x1="14.422" x2="14.422" y1="173.399" y2="12.536" gradientUnits="userSpaceOnUse"><stop stop-color="#fff"/><stop offset=".328" stop-color="#fff"/><stop offset=".524" stop-color="#fff"/><stop offset=".73" stop-color="#fff"/><stop offset="1" stop-color="#fff"/></linearGradient><linearGradient id="g" x1="27.623" x2="27.623" y1="193.166" y2="17.452" gradientUnits="userSpaceOnUse"><stop stop-color="#fff"/><stop offset=".328" stop-color="#fff"/><stop offset=".524" stop-color="#fff"/><stop offset=".73" stop-color="#fff"/><stop offset="1" stop-color="#fff"/></linearGradient><linearGradient id="h" x1="43.191" x2="43.191" y1="225.587" y2="20.402" gradientUnits="userSpaceOnUse"><stop stop-color="#fff"/><stop offset=".328" stop-color="#fff"/><stop offset=".524" stop-color="#fff"/><stop offset=".73" stop-color="#fff"/><stop offset="1" stop-color="#fff"/></linearGradient><linearGradient id="i" x1="54.542" x2="54.542" y1="318.786" y2="-54.901" gradientUnits="userSpaceOnUse"><stop stop-color="#fff"/><stop offset=".328" stop-color="#fff"/><stop offset=".524" stop-color="#fff"/><stop offset=".73" stop-color="#fff"/><stop offset="1" stop-color="#fff"/></linearGradient><linearGradient id="j" x1="66.672" x2="66.672" y1="227.824" y2="85.571" gradientUnits="userSpaceOnUse"><stop stop-color="#fff"/><stop offset=".328" stop-color="#fff"/><stop offset=".524" stop-color="#fff"/><stop offset=".73" stop-color="#fff"/><stop offset="1" stop-color="#fff"/></linearGradient><linearGradient id="k" x1="80.34" x2="80.34" y1="253.725" y2="92.976" gradientUnits="userSpaceOnUse"><stop stop-color="#fff"/><stop offset=".328" stop-color="#fff"/><stop offset=".524" stop-color="#fff"/><stop offset=".73" stop-color="#fff"/><stop offset="1" stop-color="#fff"/></linearGradient><linearGradient id="l" x1="99.998" x2="99.998" y1="266.222" y2="116.084" gradientUnits="userSpaceOnUse"><stop stop-color="#fff"/><stop offset=".328" stop-color="#fff"/><stop offset=".524" stop-color="#fff"/><stop offset=".73" stop-color="#fff"/><stop offset="1" stop-color="#fff"/></linearGradient><linearGradient id="m" x1="113.506" x2="113.506" y1="290.128" y2="129.378" gradientUnits="userSpaceOnUse"><stop stop-color="#fff"/><stop offset=".328" stop-color="#fff"/><stop offset=".524" stop-color="#fff"/><stop offset=".73" stop-color="#fff"/><stop offset="1" stop-color="#fff"/></linearGradient><linearGradient id="n" x1="126.684" x2="126.684" y1="304.976" y2="144.473" gradientUnits="userSpaceOnUse"><stop stop-color="#fff"/><stop offset=".328" stop-color="#fff"/><stop offset=".524" stop-color="#fff"/><stop offset=".73" stop-color="#fff"/><stop offset="1" stop-color="#fff"/></linearGradient><linearGradient id="o" x1="139.752" x2="139.752" y1="320.842" y2="160.092" gradientUnits="userSpaceOnUse"><stop stop-color="#fff"/><stop offset=".328" stop-color="#fff"/><stop offset=".524" stop-color="#fff"/><stop offset=".73" stop-color="#fff"/><stop offset="1" stop-color="#fff"/></linearGradient><linearGradient id="p" x1="6.432" x2="6.432" y1="149.288" y2="14.506" gradientUnits="userSpaceOnUse"><stop stop-color="#fff"/><stop offset=".328" stop-color="#fff"/><stop offset=".524" stop-color="#fff"/><stop offset=".73" stop-color="#fff"/><stop offset="1" stop-color="#fff"/></linearGradient><linearGradient id="q" x1="28.196" x2="28.196" y1="170.211" y2="36.495" gradientUnits="userSpaceOnUse"><stop stop-color="#fff"/><stop offset=".328" stop-color="#fff"/><stop offset=".524" stop-color="#fff"/><stop offset=".73" stop-color="#fff"/><stop offset="1" stop-color="#fff"/></linearGradient><linearGradient id="r" x1="51.644" x2="51.644" y1="179.098" y2="77.23" gradientUnits="userSpaceOnUse"><stop stop-color="#fff"/><stop offset=".328" stop-color="#fff"/><stop offset=".524" stop-color="#fff"/><stop offset=".73" stop-color="#fff"/><stop offset="1" stop-color="#fff"/></linearGradient><linearGradient id="s" x1="74.13" x2="74.13" y1="224" y2="74.545" gradientUnits="userSpaceOnUse"><stop stop-color="#fff"/><stop offset=".328" stop-color="#fff"/><stop offset=".524" stop-color="#fff"/><stop offset=".73" stop-color="#fff"/><stop offset="1" stop-color="#fff"/></linearGradient><linearGradient id="t" x1="93.598" x2="93.598" y1="236.528" y2="97.335" gradientUnits="userSpaceOnUse"><stop stop-color="#fff"/><stop offset=".328" stop-color="#fff"/><stop offset=".524" stop-color="#fff"/><stop offset=".73" stop-color="#fff"/><stop offset="1" stop-color="#fff"/></linearGradient><linearGradient id="u" x1="114.799" x2="114.799" y1="245.763" y2="121.793" gradientUnits="userSpaceOnUse"><stop stop-color="#fff"/><stop offset=".328" stop-color="#fff"/><stop offset=".524" stop-color="#fff"/><stop offset=".73" stop-color="#fff"/><stop offset="1" stop-color="#fff"/></linearGradient><linearGradient id="v" x1="135.758" x2="135.758" y1="290.154" y2="143.376" gradientUnits="userSpaceOnUse"><stop stop-color="#fff"/><stop offset=".328" stop-color="#fff"/><stop offset=".524" stop-color="#fff"/><stop offset=".73" stop-color="#fff"/><stop offset="1" stop-color="#fff"/></linearGradient></defs></svg>